<svg width="76" height="91" viewBox="0 0 76 91" fill="none" xmlns="http://www.w3.org/2000/svg">
<path d="M52.86 23.2067C41.5482 23.2067 17.0807 20.2656 17.0807 20.2656C17.0807 20.2656 12.1884 25.6472 9.36042 28.4752C4.09194 33.7437 4.55007 40.412 3.85156 48.729C4.71974 71.8447 19.5184 90.2632 37.705 90.2632C55.787 90.2632 70.5263 72.0511 71.5415 49.1136C70.5461 38.8481 63.6345 23.2067 52.86 23.2067Z" fill="#F7DECE"/>
<path d="M37.7065 78.948C31.0693 78.948 27.5965 75.6676 27.2232 75.2915C26.6892 74.765 26.3862 74.0479 26.3809 73.298C26.3756 72.5481 26.6684 71.8268 27.195 71.2928C27.7215 70.7587 28.4386 70.4558 29.1885 70.4505C29.9384 70.4451 30.6597 70.738 31.1937 71.2645C31.3379 71.3974 33.473 73.2921 37.7065 73.2921C42.0021 73.2921 44.1344 71.3408 44.2249 71.2588C44.768 70.7501 45.4885 70.4738 46.2325 70.4892C46.9765 70.5045 47.685 70.8101 48.2067 71.3408C48.7241 71.8692 49.0124 72.5801 49.0092 73.3196C49.0061 74.0591 48.7116 74.7676 48.1897 75.2915C47.8164 75.6676 44.3437 78.948 37.7065 78.948ZM40.5344 64.8083H34.8785C34.1285 64.8083 33.4092 64.5103 32.8788 63.98C32.3485 63.4496 32.0506 62.7303 32.0506 61.9803C32.0506 61.2303 32.3485 60.511 32.8788 59.9806C33.4092 59.4503 34.1285 59.1523 34.8785 59.1523H40.5344C41.2844 59.1523 42.0037 59.4503 42.5341 59.9806C43.0644 60.511 43.3624 61.2303 43.3624 61.9803C43.3624 62.7303 43.0644 63.4496 42.5341 63.98C42.0037 64.5103 41.2844 64.8083 40.5344 64.8083Z" fill="#C1694F"/>
<path d="M23.5662 53.4954C22.8162 53.4954 22.0969 53.1975 21.5666 52.6671C21.0362 52.1368 20.7383 51.4175 20.7383 50.6675V45.0115C20.7383 44.2615 21.0362 43.5422 21.5666 43.0119C22.0969 42.4815 22.8162 42.1836 23.5662 42.1836C24.3163 42.1836 25.0356 42.4815 25.5659 43.0119C26.0962 43.5422 26.3942 44.2615 26.3942 45.0115V50.6675C26.3942 51.4175 26.0962 52.1368 25.5659 52.6671C25.0356 53.1975 24.3163 53.4954 23.5662 53.4954ZM51.8458 53.4954C51.0958 53.4954 50.3765 53.1975 49.8461 52.6671C49.3158 52.1368 49.0178 51.4175 49.0178 50.6675V45.0115C49.0178 44.2615 49.3158 43.5422 49.8461 43.0119C50.3765 42.4815 51.0958 42.1836 51.8458 42.1836C52.5958 42.1836 53.3151 42.4815 53.8455 43.0119C54.3758 43.5422 54.6737 44.2615 54.6737 45.0115V50.6675C54.6737 51.4175 54.3758 52.1368 53.8455 52.6671C53.3151 53.1975 52.5958 53.4954 51.8458 53.4954Z" fill="#662113"/>
<path d="M37.6995 0C60.9028 0 75.3989 17.1204 75.3989 31.3875C75.3989 45.6517 72.4975 51.3642 69.5988 45.6517C66.6973 39.9477 63.7987 31.4129 63.7987 31.4129C63.7987 31.4129 53.963 37.7843 46.2569 28.5312C46.2569 28.5312 49.3026 45.6517 31.8993 28.5312C31.8993 28.5312 34.8008 39.9477 17.4004 25.6807C17.4004 25.6807 8.69879 31.3875 5.80014 45.6517C4.997 49.6136 5.16925e-07 45.6517 5.16925e-07 31.3875C-0.00282744 17.1204 11.5974 0 37.6995 0Z" fill="#577CFF"/>
<circle cx="53.8564" cy="64.624" r="1.07713" fill="#FF9494"/>
<circle cx="55.4722" cy="67.3159" r="0.538564" fill="#FF9494"/>
<circle cx="53.3169" cy="70.5493" r="1.61569" fill="#FF9494"/>
<circle cx="58.165" cy="71.0849" r="1.07713" fill="#FF9494"/>
<circle cx="60.8559" cy="67.3149" r="1.61569" fill="#FF9494"/>
</svg>
