<svg width="68" height="83" viewBox="0 0 68 83" fill="none" xmlns="http://www.w3.org/2000/svg">
<mask id="mask0_1_117" style="mask-type:alpha" maskUnits="userSpaceOnUse" x="0" y="0" width="68" height="83">
<path d="M34.8957 64.6167C34.8957 63.8486 34.6137 63.1234 33.964 62.6399C33.5106 62.3024 33.1129 61.9272 32.8005 61.5067C32.6192 61.2649 32.4656 61.0156 32.3346 60.7638C32.186 60.4716 32.0677 60.1796 31.9745 59.89C31.8688 59.5575 31.7932 59.2302 31.7378 58.9104C31.6748 58.5452 31.6421 58.1927 31.6195 57.8477C31.5968 57.4573 31.5918 57.0847 31.5918 56.7271C31.5918 56.3971 31.5892 56.0774 31.5892 55.7852V55.5736V54.1003V53.5161C31.5892 53.5161 31.5892 45.4072 31.5892 42.5818C31.5892 41.2446 31.2038 40.0081 30.0204 38.8245C27.3787 36.1827 23.3217 37.2052 23.08 37.1272L13.8984 39.3584C16.2756 42.5969 19.5997 45.1856 23.6465 46.6664V50.0787C9.94716 53.9316 0 65.7876 0 82.519H13.0068H22.025V80.5674C22.025 79.5426 22.0778 78.6057 22.1887 77.7444C22.297 76.8807 22.4658 76.0898 22.7025 75.3646C22.8611 74.8811 23.0526 74.4253 23.2768 73.9972C23.5764 73.4256 23.9442 72.9093 24.3722 72.456C24.619 72.1967 26.4171 70.1719 29.021 70.1719C33.206 70.1722 34.8957 68.0216 34.8957 64.6167Z" fill="white"/>
<path d="M42.2133 49.7184V44.6667C46.0788 42.2215 49.8513 34.8179 49.8513 25.9057V20.0885C49.2822 8.43911 39.3753 -0.543619 27.7259 0.0256283C16.512 0.574568 7.77115 9.77874 7.64769 20.8591L3.0091 27.2252C2.63132 27.7263 2.45001 28.2754 2.74978 28.8521C3.05955 29.4389 3.7118 29.5472 4.24059 29.6278L8.06077 30.2094L8.42082 33.8357C8.42082 33.8357 23.2282 33.8912 25.618 33.8912C35.6759 33.8912 35.1143 36.631 35.1143 42.5817C35.1143 45.4071 35.1143 53.0048 35.1143 53.0048V53.3498C35.1143 53.6772 35.1093 53.9945 35.1093 54.2941C35.1093 54.6617 35.1397 55.0068 35.1397 55.314C35.1397 55.9637 35.7516 56.6562 35.8448 56.7695C35.8976 56.8325 35.9606 56.893 36.0362 56.9584C36.1218 57.029 36.2277 57.0994 36.3636 57.1724C36.5172 57.258 36.711 57.3412 36.9528 57.4192C37.2298 57.5073 37.5747 57.5853 37.9878 57.6458C38.3102 57.6887 38.6778 57.7238 39.0933 57.7389C39.8413 57.6986 40.6597 57.7465 41.4982 57.9404C47.0486 59.2146 50.9669 67.9278 45.4116 74.6893C39.8538 81.4509 31.7551 79.1063 28.4562 77.1723C27.6579 76.7064 26.2552 75.961 25.9933 76.986C25.885 77.4091 25.8094 77.8976 25.749 78.4467C25.6836 79.0738 25.6457 79.7789 25.6483 80.567V82.5186H51.7827H67.2575C67.2573 65.2233 56.6278 53.1382 42.2133 49.7184Z" fill="#F7DECE"/>
</mask>
<g mask="url(#mask0_1_117)">
<rect y="49.5586" width="67.2573" height="33.6286" fill="#577CFF"/>
</g>
</svg>
