<svg width="83" height="93" viewBox="0 0 83 93" fill="none" xmlns="http://www.w3.org/2000/svg">
<path d="M25.1305 31.1448L25.6693 31.0986C25.8733 31.0755 26.058 31.0024 26.212 30.8946L26.2081 30.8985C26.7239 32.6767 27.3551 34.5472 28.1441 36.5063C29.1564 39.0696 30.1532 41.1749 31.2694 43.2071L31.1154 42.8992C31.023 44.3002 30.9114 45.7396 30.7652 47.1329C30.6959 47.9912 30.5265 48.7918 30.2687 49.5461L30.2879 49.4769C30.2417 49.4961 30.1763 57.4824 30.1763 57.4824C30.1802 62.6899 33.7865 67.0507 38.6361 68.2092L38.713 68.2246C38.9324 67.6665 39.4636 67.2777 40.0871 67.2777H42.2963C42.916 67.2854 43.4471 67.6703 43.6665 68.213L43.6703 68.2246C48.6084 67.0622 52.2302 62.7015 52.2494 57.4901C52.2494 57.4901 52.1147 49.5346 52.0454 49.4807C51.8337 48.8072 51.6644 48.0143 51.5759 47.1983L51.572 47.1406C51.4373 45.7396 51.3488 44.3348 51.2218 42.9069C52.1724 41.1903 53.1693 39.0888 54.0468 36.9219L54.1931 36.514C54.9821 34.5549 55.594 32.6882 56.129 30.9062C56.2791 31.014 56.4639 31.0871 56.664 31.1102H56.6679L57.2106 31.1564C57.8649 31.2256 58.4422 30.6868 58.4961 29.8516L59.0811 22.4195C59.0811 22.4156 59.0811 22.4118 59.0811 22.4118C59.0811 21.7844 58.6115 21.2687 58.0073 21.1917H57.9996H57.9341C58.0842 20.1102 58.1689 18.8632 58.1689 17.5969C58.1689 14.8334 57.7609 12.1623 57.0027 9.64904L57.0528 9.84534C54.832 4.9727 50.4289 1.43562 45.1252 0.446466L45.0251 0.43107C43.8859 0.196291 42.558 0.0384884 41.2032 0H41.1686H41.1224C39.7407 0.0269419 38.4128 0.180896 37.1273 0.454163L37.2659 0.43107C31.8698 1.44716 27.4744 4.98425 25.2806 9.74142L25.2382 9.84534C24.5224 12.1546 24.1105 14.8103 24.1105 17.5584C24.1105 18.8401 24.1991 20.1025 24.3723 21.3341L24.3569 21.1917C23.7449 21.261 23.2715 21.7729 23.2715 22.3964V22.4233L23.8565 29.8555C23.9104 30.7099 24.4954 31.2256 25.1266 31.1564L25.1305 31.1448Z" fill="#F7DECE"/>
<path d="M82.4299 80.3337C82.1605 68.6332 80.9905 65.9852 80.3593 64.1917C80.1091 63.4719 79.9051 58.607 71.8687 55.451C66.9422 53.5112 60.5839 53.4727 55.2032 51.198V57.5255C55.1917 64.3302 50.3191 69.9919 43.8723 71.2274L43.7837 71.2428C43.6644 71.9433 43.064 72.4667 42.3443 72.4744H42.275V77.247C42.275 81.9117 46.0545 85.6913 50.7193 85.6913C55.3841 85.6913 59.1637 81.9117 59.1637 77.247V73.9139C56.8236 73.5636 55.0493 71.5699 55.0493 69.1605C55.0493 66.5087 57.2008 64.3572 59.8526 64.3572C62.5045 64.3572 64.656 66.5087 64.656 69.1605C64.656 71.262 63.305 73.0479 61.4268 73.7022L61.3922 73.7137V77.247V77.4278C61.3922 83.3243 56.6119 88.1045 50.7155 88.1045C44.8191 88.1045 40.0388 83.3243 40.0388 77.4278C40.0388 77.3624 40.0388 77.3008 40.0388 77.2354V77.2431V72.4282C39.3537 72.382 38.7995 71.8663 38.6917 71.2043V71.1966C32.1872 69.9303 27.3376 64.2879 27.3222 57.5101V51.1326C21.9185 53.4534 15.5217 53.4996 10.5682 55.4433C2.50876 58.5955 2.32402 63.4489 2.07769 64.1801C1.46188 65.9814 0.276435 68.6178 0.00701648 80.326C-0.0391696 81.8656 0.0070167 84.2249 4.64872 86.2879C14.7558 90.2522 27.7764 91.4838 40.6123 92.369H41.8439C54.7067 91.4915 67.7081 90.2637 77.8075 86.2879C82.4299 84.2364 82.4723 81.8887 82.4299 80.3337ZM25.9251 75.5612H21.1295V80.3761H17.704V75.5766H12.9083V72.1511H17.704V67.3554H21.1295V72.1511H25.9251V75.5612Z" fill="#577CFF"/>
<path d="M62.4501 69.1215C62.4501 67.6897 61.2916 66.5273 59.8598 66.5273C58.428 66.5273 57.2695 67.6858 57.2695 69.1176C57.2695 70.5494 58.428 71.7079 59.8598 71.7079C61.2877 71.7079 62.4462 70.5494 62.4501 69.1215Z" fill="black"/>
</svg>
