<svg width="500" height="500" viewBox="0 0 500 500" fill="none" xmlns="http://www.w3.org/2000/svg">
<g clip-path="url(#clip0_585_9)">
<path d="M396.068 319.348C396.068 319.348 474.975 196.412 438.613 117.794C402.251 39.176 315.464 38.727 285.461 71.584C267.123 91.667 272.468 125.211 229.055 138.188C202.498 146.126 183.165 133.398 143.575 119.595C103.985 105.792 58.0211 135.799 52.3731 183.712C46.0341 237.49 94.9841 265.603 121.855 284.961C148.726 304.319 135.117 336.427 146.257 366.495C157.397 396.563 337.072 428.481 396.068 319.348Z" fill="#D5FAF6"/>
<path d="M435.108 183.712C435.108 183.712 441.111 114.227 396.067 79.686C357.328 49.979 318.603 64.383 306.415 77.435C294.227 90.488 307.563 106.241 341.23 103.991C374.897 101.741 425.956 124.996 435.108 183.712Z" fill="white"/>
<path d="M220.587 448.999C244.286 448.999 263.498 444.846 263.498 439.723C263.498 434.6 244.286 430.447 220.587 430.447C196.888 430.447 177.676 434.6 177.676 439.723C177.676 444.846 196.888 448.999 220.587 448.999Z" fill="#D2EDFF"/>
<path d="M372.825 439.724C396.524 439.724 415.736 435.571 415.736 430.448C415.736 425.325 396.524 421.172 372.825 421.172C349.126 421.172 329.914 425.325 329.914 430.448C329.914 435.571 349.126 439.724 372.825 439.724Z" fill="#D2EDFF"/>
<path d="M304.554 430.448C366.052 430.448 415.905 426.295 415.905 421.172C415.905 416.049 366.052 411.896 304.554 411.896C243.057 411.896 193.203 416.049 193.203 421.172C193.203 426.295 243.057 430.448 304.554 430.448Z" fill="#D2EDFF"/>
<path d="M169.374 424.134C230.872 424.134 280.725 419.981 280.725 414.858C280.725 409.735 230.872 405.582 169.374 405.582C107.877 405.582 58.0234 409.735 58.0234 414.858C58.0234 419.981 107.877 424.134 169.374 424.134Z" fill="#D2EDFF"/>
<path d="M143.193 303.333C182.253 303.333 213.917 271.669 213.917 232.609C213.917 193.549 182.253 161.885 143.193 161.885C104.133 161.885 72.4688 193.549 72.4688 232.609C72.4688 271.669 104.133 303.333 143.193 303.333Z" fill="#ACDAFF"/>
<path d="M143.193 293.868C177.025 293.868 204.452 266.441 204.452 232.609C204.452 198.776 177.025 171.35 143.193 171.35C109.36 171.35 81.9336 198.776 81.9336 232.609C81.9336 266.441 109.36 293.868 143.193 293.868Z" fill="#E6FFFF"/>
<path opacity="0.57" d="M165.105 234.994C173.649 222.083 174.555 198.816 170.261 186.423C162.435 181.826 153.341 179.147 143.613 179.07C114.045 178.838 89.886 202.619 89.654 232.188C89.587 240.739 91.538 248.831 95.047 256.029C95.463 256.088 95.904 256.05 96.293 256.212C115.848 264.365 149.041 259.269 165.105 234.994Z" fill="#FFFAFF"/>
<path d="M143.518 191.317C144.548 191.325 145.397 190.489 145.405 189.459L145.495 177.993C145.503 176.963 144.667 176.114 143.637 176.106C142.607 176.098 141.758 176.934 141.75 177.964L141.66 189.43C141.653 190.46 142.488 191.309 143.518 191.317Z" fill="#ACDAFF"/>
<path d="M142.749 289.111C143.779 289.119 144.628 288.283 144.636 287.253L144.726 275.787C144.734 274.757 143.898 273.908 142.868 273.9C141.838 273.892 140.989 274.728 140.981 275.758L140.891 287.224C140.884 288.254 141.719 289.103 142.749 289.111Z" fill="#ACDAFF"/>
<path d="M184.484 232.932C184.476 233.962 185.312 234.811 186.342 234.819L197.808 234.909C198.838 234.917 199.687 234.081 199.695 233.051C199.703 232.021 198.867 231.172 197.837 231.164L186.371 231.074C185.341 231.067 184.492 231.902 184.484 232.932Z" fill="#ACDAFF"/>
<path d="M86.6915 232.165C86.6835 233.195 87.5195 234.044 88.5495 234.052L100.015 234.142C101.045 234.15 101.894 233.314 101.902 232.284C101.91 231.254 101.074 230.405 100.044 230.397L88.5785 230.307C87.5485 230.299 86.6995 231.135 86.6915 232.165Z" fill="#ACDAFF"/>
<path d="M168.661 191.152C169.695 191.152 170.533 190.314 170.533 189.28C170.533 188.246 169.695 187.408 168.661 187.408C167.627 187.408 166.789 188.246 166.789 189.28C166.789 190.314 167.627 191.152 168.661 191.152Z" fill="#ACDAFF"/>
<path d="M117.72 277.808C118.754 277.808 119.592 276.97 119.592 275.936C119.592 274.903 118.754 274.064 117.72 274.064C116.686 274.064 115.848 274.903 115.848 275.936C115.848 276.97 116.686 277.808 117.72 277.808Z" fill="#ACDAFF"/>
<path d="M186.915 209.693C187.949 209.693 188.787 208.855 188.787 207.821C188.787 206.787 187.949 205.949 186.915 205.949C185.881 205.949 185.043 206.787 185.043 207.821C185.043 208.855 185.881 209.693 186.915 209.693Z" fill="#ACDAFF"/>
<path d="M99.4697 259.269C100.504 259.269 101.342 258.431 101.342 257.397C101.342 256.364 100.504 255.525 99.4697 255.525C98.4358 255.525 97.5977 256.364 97.5977 257.397C97.5977 258.431 98.4358 259.269 99.4697 259.269Z" fill="#ACDAFF"/>
<path d="M186.52 259.951C187.554 259.951 188.392 259.113 188.392 258.079C188.392 257.045 187.554 256.207 186.52 256.207C185.487 256.207 184.648 257.045 184.648 258.079C184.648 259.113 185.487 259.951 186.52 259.951Z" fill="#ACDAFF"/>
<path d="M99.8642 209.008C100.898 209.008 101.736 208.17 101.736 207.136C101.736 206.102 100.898 205.264 99.8642 205.264C98.8303 205.264 97.9922 206.102 97.9922 207.136C97.9922 208.17 98.8303 209.008 99.8642 209.008Z" fill="#ACDAFF"/>
<path d="M167.981 278.203C169.015 278.203 169.853 277.365 169.853 276.331C169.853 275.297 169.015 274.459 167.981 274.459C166.947 274.459 166.109 275.297 166.109 276.331C166.109 277.365 166.947 278.203 167.981 278.203Z" fill="#ACDAFF"/>
<path d="M118.407 190.758C119.441 190.758 120.279 189.92 120.279 188.886C120.279 187.852 119.441 187.014 118.407 187.014C117.373 187.014 116.535 187.852 116.535 188.886C116.535 189.92 117.373 190.758 118.407 190.758Z" fill="#ACDAFF"/>
<path d="M162.199 218.53C167.799 216.345 193.932 205.104 193.932 205.104L194.028 205.283L194.218 205.637L194.314 205.816C194.314 205.816 170.529 221.424 165.62 224.892C160.711 228.36 143.304 233.784 143.304 233.784L142.987 233.194L142.797 232.84L142.48 232.25C142.48 232.25 156.6 220.715 162.199 218.53Z" fill="#FFBC00"/>
<path d="M125.424 236.408C121.138 235.744 100.797 233.57 100.797 233.57L100.794 233.367L100.788 232.965L100.785 232.762C100.785 232.762 121.052 229.979 125.316 229.186C129.58 228.393 142.456 231.67 142.456 231.67L142.466 232.34L142.472 232.742L142.482 233.412C142.482 233.412 129.71 237.073 125.424 236.408Z" fill="#FFBC00"/>
<path d="M143.194 236.353C145.263 236.353 146.939 234.677 146.939 232.608C146.939 230.54 145.263 228.863 143.194 228.863C141.126 228.863 139.449 230.54 139.449 232.608C139.449 234.677 141.126 236.353 143.194 236.353Z" fill="#ACDAFF"/>
<path d="M106.016 309.088L89.3583 408.872C89.1663 410.021 90.0523 411.067 91.2173 411.067C92.1043 411.067 92.8713 410.449 93.0593 409.582L114.869 309.088H106.016Z" fill="#ACDAFF"/>
<path d="M122.121 303.095L110.384 403.577C110.249 404.734 111.185 405.736 112.349 405.678C113.235 405.634 113.971 404.979 114.116 404.104L130.964 302.66L122.121 303.095Z" fill="#ACDAFF"/>
<path d="M190.986 309.088L207.644 408.872C207.836 410.021 206.95 411.067 205.785 411.067C204.898 411.067 204.131 410.449 203.943 409.582L182.133 309.088H190.986Z" fill="#ACDAFF"/>
<path d="M174.881 303.095L186.619 403.577C186.754 404.734 185.818 405.736 184.654 405.678C183.768 405.634 183.032 404.979 182.887 404.104L166.039 302.66L174.881 303.095Z" fill="#ACDAFF"/>
<path d="M205.083 311.411H93.6002C91.0662 311.411 88.9922 309.337 88.9922 306.803C88.9922 304.269 91.0662 302.195 93.6002 302.195H205.083C207.617 302.195 209.691 304.269 209.691 306.803C209.691 309.338 207.617 311.411 205.083 311.411Z" fill="#2099FF"/>
<path d="M94.9709 388.403L94.6869 388.302C94.7209 388.208 98.0149 378.756 96.1179 367.569C94.3689 357.254 87.7169 343.306 65.9609 335.436L66.0629 335.152C75.7279 338.648 83.2639 343.622 88.4599 349.937C92.6199 354.992 95.2969 360.912 96.4169 367.53C98.3229 378.792 95.0039 388.308 94.9709 388.403Z" fill="#6CB7D8"/>
<path d="M69.0185 336.456C69.0185 336.456 63.2975 337.32 60.3485 334.687C57.3985 332.055 62.4245 330.784 69.0185 336.456Z" fill="#6CB7D8"/>
<path d="M74.9446 339.267C74.9446 339.267 73.1536 331.699 70.3736 330.209C67.5926 328.719 67.2016 334.112 74.9446 339.267Z" fill="#6CB7D8"/>
<path d="M74.0389 338.747C74.0389 338.747 66.3399 337.65 63.9369 339.694C61.5349 341.738 66.4119 344.071 74.0389 338.747Z" fill="#6CB7D8"/>
<path d="M78.7693 341.648C78.7693 341.648 71.0704 340.551 68.6674 342.595C66.2654 344.639 71.1423 346.973 78.7693 341.648Z" fill="#6CB7D8"/>
<path d="M83.5311 345.013C83.5311 345.013 75.8321 343.916 73.4291 345.96C71.0271 348.004 75.9041 350.337 83.5311 345.013Z" fill="#6CB7D8"/>
<path d="M88.144 349.659C88.144 349.659 80.557 347.949 77.999 349.794C75.44 351.639 80.115 354.356 88.144 349.659Z" fill="#6CB7D8"/>
<path d="M92.3577 355.832C92.3577 355.832 85.3057 352.553 82.4147 353.814C79.5237 355.076 83.5167 358.721 92.3577 355.832Z" fill="#6CB7D8"/>
<path d="M95.4261 363.393C95.4261 363.393 89.7941 358.029 86.6511 358.299C83.5081 358.569 86.1241 363.3 95.4261 363.393Z" fill="#6CB7D8"/>
<path d="M96.7667 372.232C96.7667 372.232 93.2497 365.296 90.1967 364.5C87.1437 363.705 88.0297 369.039 96.7667 372.232Z" fill="#6CB7D8"/>
<path d="M96.4245 380.911C96.4245 380.911 94.5965 373.352 91.8095 371.876C89.0225 370.4 88.6565 375.793 96.4245 380.911Z" fill="#6CB7D8"/>
<path d="M80.2474 342.561C80.2474 342.561 81.0034 335.91 78.4444 332.352C75.8844 328.794 75.0214 332.874 76.0054 335.169C76.9884 337.464 80.2474 342.561 80.2474 342.561Z" fill="#6CB7D8"/>
<path d="M84.1298 345.642C84.1298 345.642 85.9288 339.194 83.9638 335.276C81.9988 331.358 80.5018 335.25 81.1098 337.671C81.7178 340.092 84.1298 345.642 84.1298 345.642Z" fill="#6CB7D8"/>
<path d="M87.7436 349.273C87.7436 349.273 90.9876 343.418 89.9846 339.151C88.9816 334.884 86.6226 338.323 86.6526 340.82C86.6826 343.316 87.7436 349.273 87.7436 349.273Z" fill="#6CB7D8"/>
<path d="M91.2632 353.947C91.2632 353.947 94.5072 348.092 93.5042 343.825C92.5012 339.558 90.1422 342.997 90.1722 345.494C90.2032 347.99 91.2632 353.947 91.2632 353.947Z" fill="#6CB7D8"/>
<path d="M94.3305 360.337C94.3305 360.337 98.3025 354.949 97.8575 350.588C97.4125 346.228 94.6305 349.334 94.3385 351.813C94.0475 354.294 94.3305 360.337 94.3305 360.337Z" fill="#6CB7D8"/>
<path d="M96.4023 368.826C96.4023 368.826 101.325 364.29 101.715 359.924C102.106 355.558 98.7843 358.08 98.0283 360.459C97.2713 362.838 96.4023 368.826 96.4023 368.826Z" fill="#6CB7D8"/>
<path d="M96.75 376.538C96.75 376.538 102.483 373.083 103.744 368.885C105.004 364.687 101.244 366.49 100.024 368.668C98.804 370.847 96.75 376.538 96.75 376.538Z" fill="#6CB7D8"/>
<path d="M131.903 373.524L132.187 373.423C132.153 373.329 128.859 363.876 130.756 352.69C132.505 342.375 139.157 328.427 160.913 320.557L160.811 320.273C151.146 323.769 143.61 328.743 138.414 335.058C134.254 340.113 131.577 346.032 130.457 352.651C128.551 363.913 131.869 373.429 131.903 373.524Z" fill="#6CB7D8"/>
<path d="M157.859 321.577C157.859 321.577 163.58 322.441 166.529 319.808C169.479 317.177 164.453 315.905 157.859 321.577Z" fill="#6CB7D8"/>
<path d="M151.934 324.388C151.934 324.388 153.725 316.82 156.505 315.33C159.286 313.841 159.677 319.233 151.934 324.388Z" fill="#6CB7D8"/>
<path d="M152.84 323.868C152.84 323.868 160.539 322.771 162.942 324.815C165.344 326.859 160.467 329.193 152.84 323.868Z" fill="#6CB7D8"/>
<path d="M148.109 326.769C148.109 326.769 155.808 325.672 158.211 327.716C160.614 329.76 155.736 332.094 148.109 326.769Z" fill="#6CB7D8"/>
<path d="M143.344 330.132C143.344 330.132 151.043 329.035 153.446 331.079C155.849 333.123 150.971 335.456 143.344 330.132Z" fill="#6CB7D8"/>
<path d="M138.734 334.78C138.734 334.78 146.321 333.07 148.879 334.915C151.438 336.761 146.763 339.477 138.734 334.78Z" fill="#6CB7D8"/>
<path d="M134.52 340.953C134.52 340.953 141.572 337.674 144.463 338.935C147.354 340.196 143.361 343.841 134.52 340.953Z" fill="#6CB7D8"/>
<path d="M131.449 348.514C131.449 348.514 137.081 343.15 140.224 343.42C143.367 343.69 140.751 348.421 131.449 348.514Z" fill="#6CB7D8"/>
<path d="M130.109 357.353C130.109 357.353 133.626 350.417 136.679 349.621C139.732 348.826 138.846 354.159 130.109 357.353Z" fill="#6CB7D8"/>
<path d="M130.453 366.033C130.453 366.033 132.281 358.474 135.068 356.998C137.855 355.522 138.221 360.916 130.453 366.033Z" fill="#6CB7D8"/>
<path d="M146.632 327.682C146.632 327.682 145.876 321.031 148.435 317.473C150.995 313.915 151.858 317.995 150.874 320.29C149.891 322.585 146.632 327.682 146.632 327.682Z" fill="#6CB7D8"/>
<path d="M142.749 330.763C142.749 330.763 140.95 324.315 142.915 320.397C144.88 316.479 146.377 320.371 145.769 322.793C145.161 325.214 142.749 330.763 142.749 330.763Z" fill="#6CB7D8"/>
<path d="M139.137 334.394C139.137 334.394 135.893 328.539 136.896 324.272C137.899 320.005 140.258 323.444 140.228 325.941C140.198 328.437 139.137 334.394 139.137 334.394Z" fill="#6CB7D8"/>
<path d="M135.613 339.066C135.613 339.066 132.369 333.211 133.372 328.944C134.375 324.677 136.734 328.116 136.704 330.613C136.673 333.109 135.613 339.066 135.613 339.066Z" fill="#6CB7D8"/>
<path d="M132.546 345.46C132.546 345.46 128.574 340.072 129.019 335.711C129.464 331.351 132.246 334.457 132.538 336.936C132.829 339.416 132.546 345.46 132.546 345.46Z" fill="#6CB7D8"/>
<path d="M130.474 353.947C130.474 353.947 125.551 349.411 125.161 345.045C124.77 340.679 128.092 343.201 128.848 345.58C129.605 347.96 130.474 353.947 130.474 353.947Z" fill="#6CB7D8"/>
<path d="M130.128 361.659C130.128 361.659 124.395 358.204 123.134 354.006C121.873 349.808 125.634 351.611 126.854 353.789C128.074 355.968 130.128 361.659 130.128 361.659Z" fill="#6CB7D8"/>
<path d="M98.7612 360.567C98.7612 360.567 92.0762 340.78 98.0932 335.097C104.11 329.414 96.6432 321.349 98.4112 316.095C100.18 310.842 106.657 307.72 109.482 317.358C112.307 326.996 113.107 327.294 120.206 327.738C127.305 328.182 126.759 342.476 125.504 349.052C124.249 355.629 131.221 345.24 133.33 352.299C135.439 359.358 125.223 373.914 114.478 381.501C103.733 389.088 90.5912 367.511 91.4932 362.114C92.3962 356.718 96.3402 363.942 98.7612 360.567Z" fill="#82C4E8"/>
<path d="M99.7062 332.967C99.3332 333.705 98.8112 334.419 98.0922 335.099C92.0752 340.782 98.7602 360.569 98.7602 360.569C96.3392 363.944 92.3952 356.72 91.4932 362.116C90.5912 367.513 103.732 389.089 114.478 381.503C115.055 381.096 115.63 380.664 116.202 380.219C114.955 363.339 109.255 347.159 99.7062 332.967Z" fill="#6CB7D8"/>
<path d="M110.821 383.376C110.713 383.495 110.548 383.556 110.379 383.524C110.121 383.475 109.952 383.225 110.001 382.967C110.052 382.698 115.007 355.628 102.488 316.388C102.408 316.137 102.546 315.869 102.797 315.79C103.048 315.71 103.316 315.848 103.395 316.099C115.994 355.588 110.988 382.876 110.936 383.147C110.918 383.235 110.877 383.314 110.821 383.376Z" fill="#98CFF4"/>
<path d="M106.248 328.027L99.9158 322.925C99.7108 322.76 99.6788 322.461 99.8438 322.256C100.009 322.055 100.309 322.019 100.513 322.184L105.991 326.598L108.878 321.76C109.014 321.532 109.305 321.46 109.531 321.595C109.757 321.73 109.831 322.022 109.696 322.248L106.248 328.027Z" fill="#98CFF4"/>
<path d="M121.728 331.907C121.718 331.918 121.708 331.929 121.697 331.939L109.378 343.209L99.5912 336.559C99.3742 336.411 99.3172 336.115 99.4652 335.898C99.6122 335.679 99.9092 335.624 100.126 335.772L109.29 341.998L121.054 331.236C121.248 331.059 121.549 331.072 121.727 331.266C121.894 331.449 121.892 331.727 121.728 331.907Z" fill="#98CFF4"/>
<path d="M124.397 347.619C124.392 347.624 124.387 347.63 124.382 347.635L111.328 360.798L98.4376 350.523C98.2316 350.359 98.1976 350.059 98.3616 349.854C98.5366 349.645 98.8246 349.615 99.0306 349.778L111.252 359.521L123.705 346.965C123.89 346.778 124.192 346.777 124.378 346.962C124.561 347.142 124.567 347.432 124.397 347.619Z" fill="#98CFF4"/>
<path d="M130.013 356.897C130.009 356.902 130.004 356.907 130 356.911L111.361 375.848L95.383 364.675C95.168 364.524 95.115 364.227 95.265 364.012C95.418 363.798 95.713 363.744 95.928 363.894L111.247 374.606L129.322 356.242C129.506 356.055 129.808 356.052 129.995 356.237C130.177 356.418 130.184 356.709 130.013 356.897Z" fill="#98CFF4"/>
<path d="M95.752 386.004C95.752 386.004 81.146 378.695 81.359 372.226C81.572 365.757 72.985 365.389 71.075 361.498C69.165 357.607 71.044 352.307 77.919 356.105C84.793 359.903 85.402 359.627 89.589 355.966C93.776 352.305 101.342 360.543 104.266 364.887C107.19 369.231 105.343 359.623 110.4 362.382C115.457 365.141 117.798 378.85 116.006 388.979C114.215 399.108 95.038 394.36 92.568 390.866C90.098 387.372 96.266 389.211 95.752 386.004Z" fill="#98CFF4"/>
<path d="M81.082 370.154C81.282 370.769 81.385 371.453 81.359 372.226C81.146 378.695 95.752 386.004 95.752 386.004C96.265 389.211 90.098 387.37 92.568 390.864C95.038 394.358 114.215 399.106 116.006 388.977C116.102 388.433 116.184 387.877 116.257 387.315C106.272 378.627 94.199 372.779 81.082 370.154Z" fill="#82C4E8"/>
<path d="M115.007 392.032C115.012 392.157 114.955 392.282 114.843 392.358C114.672 392.473 114.441 392.427 114.327 392.257C114.207 392.08 102.057 374.318 73.5014 359.417C73.3194 359.322 73.2474 359.097 73.3434 358.915C73.4384 358.733 73.6634 358.662 73.8454 358.757C102.582 373.752 114.825 391.663 114.945 391.842C114.983 391.899 115.004 391.966 115.007 392.032Z" fill="#ACDAFF"/>
<path d="M81.9925 363.812L75.6675 364.464C75.4635 364.485 75.2805 364.337 75.2595 364.132C75.2405 363.929 75.3875 363.745 75.5915 363.724L81.0645 363.16L80.0045 358.884C79.9545 358.682 80.0765 358.482 80.2765 358.433C80.4765 358.384 80.6785 358.505 80.7275 358.705L81.9925 363.812Z" fill="#ACDAFF"/>
<path d="M92.7294 357.441C92.7304 357.453 92.7304 357.464 92.7294 357.476L92.0914 370.517L82.9954 372.212C82.7934 372.25 82.5984 372.116 82.5614 371.914C82.5224 371.711 82.6574 371.517 82.8594 371.48L91.3764 369.893L91.9854 357.44C91.9954 357.235 92.1704 357.076 92.3754 357.086C92.5694 357.096 92.7214 357.251 92.7294 357.441Z" fill="#ACDAFF"/>
<path d="M102.862 364.698C102.862 364.703 102.862 364.709 102.862 364.715L102.859 379.212L90.0443 380.602C89.8393 380.624 89.6563 380.476 89.6343 380.272C89.6163 380.06 89.7603 379.884 89.9643 379.862L102.115 378.545L102.118 364.716C102.118 364.51 102.285 364.344 102.49 364.344C102.69 364.343 102.853 364.501 102.862 364.698Z" fill="#ACDAFF"/>
<path d="M111.089 366.76C111.089 366.765 111.089 366.77 111.089 366.775L111.163 387.554L96.1381 390.145C95.9351 390.18 95.7431 390.044 95.7081 389.841C95.6751 389.638 95.8091 389.445 96.0121 389.411L110.417 386.927L110.345 366.778C110.344 366.572 110.51 366.405 110.716 366.404C110.917 366.403 111.081 366.561 111.089 366.76Z" fill="#ACDAFF"/>
<path d="M128.588 383.943C128.588 383.943 147.84 375.845 148.112 367.573C148.384 359.301 159.372 359.553 162.136 354.748C164.9 349.943 162.948 343.023 153.857 347.291C144.766 351.559 144.012 351.156 138.977 346.132C133.942 341.107 123.595 350.984 119.5 356.281C115.405 361.578 118.569 349.473 111.884 352.569C105.199 355.665 101.06 372.96 102.495 386.035C103.929 399.11 128.798 394.663 132.244 390.413C135.687 386.161 127.663 387.992 128.588 383.943Z" fill="#ACDAFF"/>
<path d="M148.638 364.953C148.332 365.721 148.143 366.585 148.11 367.574C147.838 375.846 128.587 383.944 128.587 383.944C127.662 387.993 135.687 386.162 132.242 390.413C128.797 394.664 103.928 399.11 102.493 386.035C102.416 385.333 102.358 384.617 102.312 383.893C115.783 373.647 131.681 367.199 148.638 364.953Z" fill="#98CFF4"/>
<path d="M103.511 390.016C103.493 390.175 103.557 390.34 103.693 390.445C103.901 390.606 104.2 390.567 104.361 390.359C104.528 390.143 121.526 368.5 159.217 351.887C159.458 351.781 159.568 351.5 159.461 351.259C159.355 351.018 159.074 350.909 158.833 351.015C120.904 367.733 103.776 389.558 103.608 389.777C103.551 389.849 103.52 389.932 103.511 390.016Z" fill="#D2EDFF"/>
<path d="M148.008 356.782L156.024 358.146C156.283 358.19 156.529 358.016 156.573 357.756C156.614 357.499 156.442 357.251 156.183 357.207L149.247 356.027L150.959 350.659C151.04 350.405 150.901 350.14 150.65 350.06C150.399 349.98 150.131 350.118 150.051 350.369L148.008 356.782Z" fill="#D2EDFF"/>
<path d="M134.845 347.751C134.843 347.766 134.842 347.781 134.842 347.796L134.559 364.49L146.024 367.418C146.279 367.483 146.538 367.329 146.603 367.074C146.67 366.819 146.514 366.56 146.259 366.495L135.524 363.753L135.794 347.812C135.798 347.549 135.589 347.332 135.326 347.328C135.078 347.324 134.872 347.51 134.845 347.751Z" fill="#D2EDFF"/>
<path d="M121.307 356.16C121.306 356.167 121.305 356.174 121.305 356.181L120.09 374.679L136.326 377.529C136.585 377.574 136.832 377.401 136.877 377.143C136.917 376.874 136.749 376.637 136.491 376.592L121.097 373.889L122.255 356.243C122.272 355.981 122.074 355.754 121.811 355.737C121.557 355.72 121.335 355.908 121.307 356.16Z" fill="#D2EDFF"/>
<path d="M110.636 358.098C110.635 358.104 110.635 358.111 110.634 358.117L108.793 384.625L127.747 389.195C128.003 389.256 128.26 389.099 128.322 388.844C128.381 388.588 128.226 388.331 127.971 388.269L109.799 383.888L111.584 358.183C111.602 357.921 111.405 357.693 111.142 357.675C110.886 357.658 110.664 357.846 110.636 358.098Z" fill="#D2EDFF"/>
<path d="M184.71 359.312C184.71 359.312 190.276 342.837 185.266 338.105C180.256 333.373 186.473 326.658 185.001 322.284C183.528 317.91 178.135 315.311 175.783 323.336C173.431 331.36 172.764 331.609 166.854 331.978C160.943 332.347 161.398 344.249 162.443 349.725C163.488 355.201 157.683 346.551 155.927 352.428C154.171 358.305 162.677 370.425 171.624 376.742C180.571 383.058 191.513 365.093 190.761 360.6C190.009 356.107 186.725 362.122 184.71 359.312Z" fill="#82C4E8"/>
<path d="M183.921 336.33C184.231 336.945 184.667 337.539 185.266 338.105C190.276 342.837 184.709 359.312 184.709 359.312C186.725 362.122 190.008 356.107 190.76 360.6C191.512 365.093 180.569 383.058 171.623 376.742C171.143 376.403 170.664 376.044 170.188 375.673C171.224 361.619 175.97 348.146 183.921 336.33Z" fill="#6CB7D8"/>
<path d="M174.667 378.305C174.757 378.404 174.894 378.455 175.035 378.428C175.25 378.387 175.391 378.179 175.35 377.964C175.307 377.74 171.182 355.201 181.606 322.529C181.673 322.32 181.558 322.097 181.349 322.031C181.14 321.964 180.917 322.079 180.851 322.288C170.361 355.168 174.529 377.888 174.572 378.113C174.585 378.187 174.619 378.252 174.667 378.305Z" fill="#98CFF4"/>
<path d="M178.479 332.22L183.751 327.972C183.921 327.835 183.948 327.585 183.811 327.415C183.674 327.248 183.424 327.218 183.254 327.355L178.693 331.03L176.288 327.001C176.174 326.811 175.932 326.751 175.744 326.863C175.556 326.975 175.494 327.219 175.607 327.407L178.479 332.22Z" fill="#98CFF4"/>
<path d="M165.587 335.449C165.595 335.458 165.604 335.467 165.613 335.475L175.87 344.858L184.019 339.321C184.2 339.198 184.247 338.951 184.124 338.77C184.002 338.587 183.754 338.542 183.573 338.665L175.942 343.849L166.147 334.889C165.985 334.741 165.735 334.753 165.587 334.914C165.449 335.067 165.451 335.299 165.587 335.449Z" fill="#98CFF4"/>
<path d="M163.365 348.532C163.369 348.536 163.373 348.541 163.377 348.545L174.246 359.505L184.978 350.95C185.149 350.813 185.178 350.564 185.041 350.393C184.895 350.219 184.655 350.194 184.484 350.33L174.308 358.442L163.94 347.988C163.786 347.833 163.535 347.831 163.379 347.986C163.228 348.134 163.223 348.376 163.365 348.532Z" fill="#98CFF4"/>
<path d="M158.688 356.256C158.692 356.26 158.695 356.264 158.699 356.268L174.218 372.036L187.522 362.733C187.701 362.607 187.745 362.36 187.62 362.181C187.492 362.003 187.247 361.958 187.068 362.083L174.313 371.002L159.264 355.712C159.11 355.556 158.859 355.554 158.704 355.707C158.552 355.857 158.546 356.099 158.688 356.256Z" fill="#98CFF4"/>
<path d="M162.264 382.283C162.264 382.283 147.658 374.974 147.871 368.505C148.084 362.036 139.497 361.668 137.587 357.777C135.677 353.886 137.556 348.586 144.431 352.384C151.305 356.182 151.914 355.906 156.101 352.245C160.288 348.583 167.854 356.822 170.778 361.166C173.701 365.51 171.855 355.902 176.912 358.661C181.969 361.42 184.31 375.129 182.518 385.258C180.727 395.387 161.55 390.639 159.08 387.145C156.609 383.649 162.777 385.49 162.264 382.283Z" fill="#98CFF4"/>
<path d="M147.594 366.434C147.794 367.049 147.897 367.733 147.871 368.506C147.658 374.975 162.264 382.284 162.264 382.284C162.777 385.491 156.61 383.65 159.08 387.144C161.55 390.638 180.727 395.386 182.518 385.257C182.614 384.713 182.696 384.157 182.769 383.595C172.785 374.907 160.711 369.059 147.594 366.434Z" fill="#82C4E8"/>
<path d="M181.519 388.311C181.525 388.436 181.467 388.561 181.355 388.637C181.184 388.752 180.953 388.706 180.839 388.536C180.719 388.359 168.569 370.597 140.013 355.696C139.831 355.601 139.759 355.376 139.855 355.194C139.95 355.012 140.175 354.941 140.357 355.036C169.094 370.031 181.337 387.942 181.457 388.121C181.496 388.178 181.516 388.244 181.519 388.311Z" fill="#ACDAFF"/>
<path d="M148.504 360.091L142.179 360.743C141.975 360.764 141.792 360.616 141.771 360.411C141.752 360.208 141.899 360.024 142.103 360.003L147.576 359.439L146.516 355.163C146.466 354.961 146.588 354.761 146.788 354.712C146.988 354.662 147.19 354.784 147.239 354.984L148.504 360.091Z" fill="#ACDAFF"/>
<path d="M159.241 353.721C159.242 353.733 159.242 353.744 159.241 353.756L158.603 366.797L149.507 368.492C149.305 368.53 149.11 368.396 149.073 368.194C149.034 367.991 149.169 367.797 149.371 367.76L157.888 366.173L158.497 353.72C158.507 353.515 158.682 353.356 158.887 353.366C159.081 353.376 159.233 353.531 159.241 353.721Z" fill="#ACDAFF"/>
<path d="M169.374 360.977C169.374 360.982 169.374 360.988 169.374 360.994L169.371 375.491L156.556 376.881C156.351 376.903 156.168 376.755 156.146 376.551C156.128 376.339 156.272 376.163 156.476 376.141L168.627 374.824L168.63 360.995C168.63 360.789 168.797 360.623 169.002 360.623C169.202 360.622 169.365 360.779 169.374 360.977Z" fill="#ACDAFF"/>
<path d="M177.601 363.04C177.601 363.045 177.601 363.05 177.601 363.055L177.675 383.834L162.65 386.425C162.447 386.46 162.255 386.324 162.22 386.121C162.187 385.918 162.321 385.725 162.524 385.691L176.929 383.207L176.857 363.058C176.856 362.852 177.022 362.685 177.228 362.684C177.428 362.683 177.592 362.841 177.601 363.04Z" fill="#ACDAFF"/>
<path d="M142.232 386.408C142.232 386.408 128.968 384.682 127.394 379.621C125.819 374.56 119.078 376.584 116.554 374.088C114.03 371.592 114.059 366.987 120.398 368.076C126.737 369.165 127.134 368.788 129.388 364.83C131.642 360.872 139.71 365.21 143.14 367.784C146.57 370.358 142.557 363.422 147.211 364.197C151.865 364.972 157.362 374.946 158.7 383.263C160.038 391.58 143.927 393.064 141.077 391.025C138.227 388.986 143.492 388.75 142.232 386.408Z" fill="#82C4E8"/>
<path d="M126.621 378.092C126.941 378.514 127.205 379.015 127.393 379.62C128.968 384.681 142.231 386.407 142.231 386.407C143.491 388.75 138.225 388.984 141.075 391.023C143.925 393.062 160.036 391.578 158.698 383.261C158.626 382.814 158.54 382.362 158.445 381.908C148.385 377.873 137.473 376.596 126.621 378.092Z" fill="#6CB7D8"/>
<path d="M158.749 385.893C158.787 385.988 158.776 386.101 158.709 386.189C158.608 386.324 158.417 386.351 158.282 386.249C158.142 386.144 143.966 375.672 117.87 371.825C117.703 371.801 117.588 371.646 117.613 371.479C117.637 371.312 117.793 371.197 117.959 371.222C144.22 375.094 158.507 385.656 158.648 385.762C158.695 385.797 158.729 385.843 158.749 385.893Z" fill="#98CFF4"/>
<path d="M125.623 372.941L120.905 375.146C120.753 375.217 120.571 375.152 120.5 374.999C120.431 374.847 120.495 374.665 120.647 374.594L124.728 372.686L122.758 369.663C122.665 369.52 122.706 369.333 122.847 369.241C122.988 369.149 123.177 369.189 123.269 369.33L125.623 372.941Z" fill="#98CFF4"/>
<path d="M132.214 365.126C132.218 365.135 132.221 365.144 132.223 365.153L135.237 375.412L128.656 379.169C128.51 379.252 128.324 379.202 128.24 379.055C128.155 378.909 128.207 378.723 128.354 378.639L134.516 375.121L131.638 365.324C131.591 365.162 131.683 364.993 131.845 364.945C131.998 364.902 132.157 364.982 132.214 365.126Z" fill="#98CFF4"/>
<path d="M142.003 368.014C142.005 368.018 142.006 368.023 142.008 368.027L145.904 379.242L136.365 383.763C136.213 383.835 136.031 383.77 135.959 383.618C135.888 383.459 135.952 383.284 136.104 383.212L145.149 378.925L141.433 368.227C141.378 368.068 141.462 367.894 141.621 367.839C141.775 367.785 141.943 367.863 142.003 368.014Z" fill="#98CFF4"/>
<path d="M148.92 367.397C148.922 367.401 148.923 367.405 148.924 367.409L154.569 383.462L143.644 389.507C143.497 389.588 143.311 389.535 143.229 389.388C143.149 389.24 143.201 389.055 143.348 388.973L153.823 383.178L148.349 367.611C148.293 367.452 148.377 367.278 148.535 367.222C148.691 367.168 148.86 367.246 148.92 367.397Z" fill="#98CFF4"/>
<path d="M195.096 383.943C195.096 383.943 214.348 375.845 214.62 367.573C214.892 359.301 225.88 359.553 228.644 354.748C231.408 349.943 229.456 343.023 220.365 347.291C211.274 351.559 210.52 351.156 205.485 346.132C200.45 341.107 190.103 350.984 186.008 356.281C181.913 361.578 185.077 349.473 178.392 352.569C171.707 355.665 167.568 372.96 169.003 386.035C170.437 399.11 195.306 394.663 198.752 390.413C202.196 386.161 194.171 387.992 195.096 383.943Z" fill="#ACDAFF"/>
<path d="M215.146 364.953C214.84 365.721 214.651 366.585 214.618 367.574C214.346 375.846 195.094 383.944 195.094 383.944C194.169 387.993 202.194 386.162 198.749 390.413C195.304 394.664 170.435 399.11 169 386.035C168.923 385.333 168.865 384.617 168.82 383.893C182.291 373.647 198.189 367.199 215.146 364.953Z" fill="#98CFF4"/>
<path d="M170.019 390.016C170.001 390.175 170.065 390.34 170.201 390.445C170.409 390.606 170.708 390.567 170.869 390.359C171.036 390.143 188.034 368.5 225.725 351.887C225.966 351.781 226.076 351.5 225.969 351.259C225.863 351.018 225.582 350.909 225.341 351.015C187.412 367.733 170.284 389.558 170.116 389.777C170.06 389.849 170.028 389.932 170.019 390.016Z" fill="#D2EDFF"/>
<path d="M214.516 356.782L222.532 358.146C222.791 358.19 223.037 358.016 223.081 357.756C223.122 357.499 222.95 357.251 222.691 357.207L215.755 356.027L217.467 350.659C217.548 350.405 217.409 350.14 217.158 350.06C216.907 349.98 216.639 350.118 216.559 350.369L214.516 356.782Z" fill="#D2EDFF"/>
<path d="M201.352 347.751C201.35 347.766 201.349 347.781 201.349 347.796L201.066 364.49L212.531 367.418C212.786 367.483 213.045 367.329 213.11 367.074C213.177 366.819 213.021 366.56 212.766 366.495L202.031 363.753L202.301 347.812C202.305 347.549 202.096 347.332 201.833 347.328C201.586 347.324 201.379 347.51 201.352 347.751Z" fill="#D2EDFF"/>
<path d="M187.815 356.16C187.814 356.167 187.813 356.174 187.813 356.181L186.598 374.679L202.834 377.529C203.093 377.574 203.34 377.401 203.385 377.143C203.425 376.874 203.257 376.637 202.999 376.592L187.605 373.889L188.763 356.243C188.78 355.981 188.582 355.754 188.319 355.737C188.064 355.72 187.843 355.908 187.815 356.16Z" fill="#D2EDFF"/>
<path d="M177.144 358.098C177.143 358.104 177.143 358.111 177.142 358.117L175.301 384.625L194.255 389.195C194.511 389.256 194.768 389.099 194.83 388.844C194.889 388.588 194.734 388.331 194.479 388.269L176.307 383.888L178.092 358.183C178.11 357.921 177.913 357.693 177.65 357.675C177.395 357.658 177.172 357.846 177.144 358.098Z" fill="#D2EDFF"/>
<path d="M224.43 414.858H81.0297L77.4297 382.113H228.03L224.43 414.858Z" fill="#FF9900"/>
<path d="M225.476 405.34H79.9844L80.2564 407.816H225.204L225.476 405.34Z" fill="#FFBC00"/>
<path d="M226.442 396.562H79.0195L79.5475 401.364H225.914L226.442 396.562Z" fill="#FFBC00"/>
<path d="M230.015 379.848H75.1797V387.561H230.015V379.848Z" fill="#FFBC00"/>
<path d="M357.538 422.289H235.753C227.134 422.289 213.74 415.809 214.74 407.19L251.936 148.281C252.936 139.662 260.734 132.674 269.354 132.674L383.685 128.217C397.589 128.217 405.934 139.661 404.934 148.281L374.955 406.682C373.955 415.301 366.157 422.289 357.538 422.289Z" fill="#144182"/>
<path d="M348.565 417.758H226.781C218.162 417.758 211.985 410.771 212.985 402.151L242.964 143.75C243.964 135.131 251.762 128.143 260.382 128.143H382.166C390.785 128.143 396.962 135.13 395.962 143.75L365.983 402.151C364.983 410.77 357.185 417.758 348.565 417.758Z" fill="#2099FF"/>
<path d="M348.535 412.339H228.068C221.508 412.339 216.808 407.021 217.569 400.462L247.259 144.551C248.02 137.991 253.955 132.674 260.514 132.674H380.981C387.541 132.674 392.241 137.992 391.48 144.551L361.79 400.462C361.029 407.021 355.095 412.339 348.535 412.339Z" fill="#ACDAFF"/>
<path d="M299.244 405.9H274.134C271.227 405.9 269.124 403.521 269.461 400.614C269.798 397.707 272.453 395.328 275.361 395.328H300.471C303.378 395.328 305.481 397.707 305.144 400.614C304.806 403.521 302.151 405.9 299.244 405.9Z" fill="#2099FF"/>
<path d="M265.951 144.889C267.64 143.294 267.859 140.782 266.439 139.277C265.019 137.773 262.498 137.845 260.809 139.44C259.12 141.034 258.901 143.546 260.321 145.051C261.741 146.555 264.261 146.483 265.951 144.889Z" fill="#2099FF"/>
<path d="M275.566 143.806C276.584 142.845 276.715 141.332 275.86 140.425C275.004 139.518 273.486 139.562 272.468 140.523C271.45 141.483 271.319 142.997 272.174 143.903C273.029 144.81 274.548 144.766 275.566 143.806Z" fill="#2099FF"/>
<path d="M356.677 389.286H224.27L251.715 152.729H384.122L356.677 389.286Z" fill="white"/>
<path d="M365.791 189.229H261.693C258.495 189.229 256.204 186.637 256.575 183.439L258.678 165.315C259.049 162.117 261.942 159.525 265.139 159.525H369.237C372.435 159.525 374.726 162.117 374.355 165.315L372.252 183.439C371.881 186.637 368.988 189.229 365.791 189.229Z" fill="#E6F2FF"/>
<path d="M270.677 176.92L271.493 169.888H272.575L275.074 175.021H274.508L278.147 169.888H279.229L278.424 176.92H277.18L277.76 171.827H278.023L274.937 176.116H274.35L272.219 171.827H272.522L271.931 176.92H270.677ZM282.633 176.99C282.08 176.99 281.602 176.873 281.198 176.638C280.794 176.397 280.492 176.069 280.29 175.654C280.089 175.239 280.019 174.767 280.08 174.238C280.143 173.702 280.322 173.23 280.619 172.821C280.916 172.406 281.295 172.081 281.753 171.847C282.212 171.613 282.718 171.495 283.27 171.495C283.83 171.495 284.312 171.613 284.716 171.847C285.127 172.081 285.43 172.403 285.626 172.811C285.828 173.22 285.897 173.695 285.834 174.238C285.773 174.767 285.594 175.239 285.296 175.654C285.005 176.069 284.627 176.397 284.161 176.638C283.702 176.873 283.193 176.99 282.633 176.99ZM282.758 175.915C283.068 175.915 283.352 175.848 283.61 175.714C283.869 175.58 284.08 175.386 284.244 175.132C284.415 174.877 284.521 174.579 284.56 174.238C284.601 173.889 284.564 173.591 284.452 173.344C284.346 173.089 284.18 172.895 283.953 172.761C283.726 172.627 283.46 172.56 283.157 172.56C282.847 172.56 282.563 172.627 282.305 172.761C282.053 172.895 281.842 173.089 281.671 173.344C281.5 173.591 281.395 173.889 281.355 174.238C281.315 174.579 281.351 174.877 281.463 175.132C281.575 175.386 281.742 175.58 281.962 175.714C282.189 175.848 282.454 175.915 282.758 175.915ZM286.732 176.92L287.354 171.556H288.558L288.39 173.002L288.229 172.56C288.457 172.219 288.761 171.957 289.139 171.777C289.525 171.589 289.953 171.495 290.425 171.495C290.857 171.495 291.231 171.579 291.549 171.746C291.874 171.914 292.113 172.172 292.268 172.52C292.424 172.861 292.471 173.303 292.408 173.846L292.051 176.92H290.787L291.125 174.007C291.18 173.531 291.107 173.176 290.905 172.942C290.71 172.707 290.41 172.59 290.005 172.59C289.709 172.59 289.439 172.651 289.195 172.771C288.952 172.892 288.753 173.072 288.597 173.314C288.448 173.548 288.353 173.846 288.311 174.208L287.996 176.92H286.732ZM295.942 176.99C295.423 176.99 294.968 176.876 294.576 176.649C294.192 176.414 293.906 176.093 293.717 175.684C293.529 175.276 293.466 174.794 293.531 174.238C293.595 173.682 293.769 173.2 294.053 172.791C294.336 172.383 294.696 172.065 295.134 171.837C295.578 171.609 296.06 171.495 296.579 171.495C297.031 171.495 297.424 171.596 297.758 171.797C298.093 171.991 298.341 172.289 298.504 172.691C298.666 173.093 298.711 173.608 298.638 174.238C298.566 174.86 298.405 175.376 298.155 175.785C297.906 176.186 297.591 176.488 297.211 176.689C296.83 176.89 296.407 176.99 295.942 176.99ZM296.218 175.915C296.522 175.915 296.799 175.848 297.051 175.714C297.309 175.58 297.524 175.386 297.695 175.132C297.873 174.877 297.981 174.579 298.021 174.238C298.061 173.889 298.022 173.591 297.902 173.344C297.79 173.089 297.62 172.895 297.393 172.761C297.173 172.627 296.911 172.56 296.608 172.56C296.304 172.56 296.023 172.627 295.765 172.761C295.514 172.895 295.299 173.089 295.121 173.344C294.951 173.591 294.845 173.889 294.805 174.238C294.765 174.579 294.802 174.877 294.914 175.132C295.033 175.386 295.202 175.58 295.423 175.714C295.65 175.848 295.915 175.915 296.218 175.915ZM297.74 176.92L297.887 175.654L298.103 174.228L298.167 172.801L298.554 169.466H299.808L298.944 176.92H297.74ZM303.934 176.92L304.06 175.835L304.016 175.604L304.236 173.705C304.279 173.337 304.201 173.052 304.002 172.851C303.803 172.644 303.478 172.54 303.027 172.54C302.723 172.54 302.418 172.587 302.11 172.681C301.809 172.774 301.548 172.905 301.327 173.072L300.937 172.158C301.253 171.937 301.615 171.773 302.026 171.666C302.443 171.552 302.868 171.495 303.299 171.495C304.081 171.495 304.663 171.683 305.044 172.058C305.433 172.426 305.582 172.999 305.492 173.776L305.128 176.92H303.934ZM302.227 176.99C301.823 176.99 301.477 176.923 301.189 176.789C300.902 176.649 300.688 176.458 300.547 176.217C300.414 175.969 300.366 175.691 300.401 175.383C300.436 175.081 300.538 174.81 300.708 174.569C300.884 174.328 301.146 174.137 301.492 173.997C301.839 173.856 302.285 173.786 302.832 173.786H304.399L304.302 174.619H302.826C302.394 174.619 302.096 174.69 301.932 174.83C301.768 174.964 301.674 175.132 301.651 175.333C301.625 175.56 301.695 175.741 301.861 175.875C302.028 176.009 302.273 176.076 302.596 176.076C302.906 176.076 303.191 176.006 303.45 175.865C303.716 175.724 303.918 175.517 304.058 175.242L304.183 175.996C304.025 176.31 303.778 176.555 303.441 176.729C303.11 176.903 302.706 176.99 302.227 176.99ZM306.832 178.939C306.569 178.939 306.311 178.895 306.059 178.808C305.806 178.721 305.601 178.601 305.443 178.447L306.056 177.522C306.171 177.636 306.305 177.727 306.459 177.794C306.614 177.861 306.775 177.894 306.943 177.894C307.173 177.894 307.365 177.837 307.519 177.723C307.674 177.61 307.828 177.419 307.98 177.151L308.375 176.448L308.494 176.297L311.086 171.556H312.3L309.1 177.352C308.884 177.753 308.659 178.072 308.423 178.306C308.193 178.54 307.945 178.704 307.678 178.798C307.418 178.892 307.136 178.939 306.832 178.939ZM308.157 177.111L306.364 171.556H307.678L309.123 176.186L308.157 177.111ZM316.011 176.92L316.768 170.39L317.276 170.983H315.203L315.33 169.888H318.141L317.326 176.92H316.011ZM319.862 176.92L320.62 170.39L321.127 170.983H319.054L319.181 169.888H321.993L321.177 176.92H319.862ZM323.362 176.99C323.133 176.99 322.946 176.913 322.802 176.759C322.659 176.598 322.601 176.397 322.629 176.156C322.659 175.902 322.763 175.701 322.942 175.554C323.122 175.4 323.326 175.323 323.555 175.323C323.784 175.323 323.971 175.4 324.115 175.554C324.26 175.701 324.317 175.902 324.288 176.156C324.26 176.397 324.156 176.598 323.975 176.759C323.796 176.913 323.591 176.99 323.362 176.99ZM327.873 177.02C327.313 177.02 326.824 176.88 326.405 176.598C325.993 176.317 325.689 175.909 325.495 175.373C325.302 174.83 325.25 174.174 325.339 173.404C325.429 172.634 325.632 171.981 325.951 171.445C326.27 170.903 326.668 170.491 327.146 170.21C327.63 169.928 328.152 169.788 328.712 169.788C329.278 169.788 329.767 169.928 330.18 170.21C330.592 170.491 330.895 170.903 331.088 171.445C331.289 171.981 331.345 172.634 331.255 173.404C331.166 174.174 330.958 174.83 330.632 175.373C330.314 175.909 329.916 176.317 329.439 176.598C328.961 176.88 328.439 177.02 327.873 177.02ZM328.004 175.885C328.335 175.885 328.631 175.798 328.894 175.624C329.158 175.443 329.379 175.169 329.556 174.8C329.74 174.432 329.865 173.966 329.93 173.404C329.996 172.835 329.98 172.369 329.88 172.008C329.788 171.639 329.631 171.368 329.408 171.194C329.186 171.013 328.91 170.923 328.58 170.923C328.263 170.923 327.969 171.013 327.699 171.194C327.436 171.368 327.213 171.639 327.028 172.008C326.852 172.369 326.73 172.835 326.664 173.404C326.599 173.966 326.612 174.432 326.704 174.8C326.803 175.169 326.964 175.443 327.185 175.624C327.415 175.798 327.688 175.885 328.004 175.885ZM334.677 177.02C334.117 177.02 333.628 176.88 333.209 176.598C332.797 176.317 332.494 175.909 332.3 175.373C332.106 174.83 332.054 174.174 332.144 173.404C332.233 172.634 332.437 171.981 332.755 171.445C333.074 170.903 333.472 170.491 333.95 170.21C334.434 169.928 334.956 169.788 335.516 169.788C336.082 169.788 336.571 169.928 336.984 170.21C337.396 170.491 337.699 170.903 337.892 171.445C338.093 171.981 338.149 172.634 338.059 173.404C337.97 174.174 337.763 174.83 337.437 175.373C337.118 175.909 336.72 176.317 336.243 176.598C335.765 176.88 335.243 177.02 334.677 177.02ZM334.809 175.885C335.139 175.885 335.436 175.798 335.699 175.624C335.962 175.443 336.183 175.169 336.36 174.8C336.545 174.432 336.669 173.966 336.735 173.404C336.801 172.835 336.784 172.369 336.684 172.008C336.592 171.639 336.435 171.368 336.212 171.194C335.991 171.013 335.715 170.923 335.384 170.923C335.067 170.923 334.774 171.013 334.503 171.194C334.24 171.368 334.017 171.639 333.833 172.008C333.656 172.369 333.534 172.835 333.468 173.404C333.403 173.966 333.417 174.432 333.509 174.8C333.608 175.169 333.768 175.443 333.99 175.624C334.219 175.798 334.492 175.885 334.809 175.885ZM340.839 176.92L344.84 169.888H346.135L348.515 176.92H347.139L345.134 170.581H345.66L342.194 176.92H340.839ZM342.494 175.292L342.967 174.268H346.79L347.025 175.292H342.494ZM349.415 176.92L350.231 169.888H351.313L353.812 175.021H353.245L356.885 169.888H357.967L357.161 176.92H355.917L356.498 171.827H356.761L353.675 176.116H353.088L350.956 171.827H351.26L350.669 176.92H349.415Z" fill="#ACDAFF"/>
<path d="M275.819 221.788H252.125L254.873 198.094H278.568L275.819 221.788Z" fill="#E6F2FF"/>
<path d="M306.48 221.788H282.785L285.534 198.094H309.229L306.48 221.788Z" fill="#ACDAFF"/>
<path d="M337.14 221.788H313.445L316.194 198.094H339.889L337.14 221.788Z" fill="#E6F2FF"/>
<path d="M367.8 221.788H344.105L346.854 198.094H370.549L367.8 221.788Z" fill="#E6F2FF"/>
<path d="M272.304 252.089H248.609L251.358 228.395H275.053L272.304 252.089Z" fill="#E6F2FF"/>
<path d="M302.965 252.089H279.27L282.019 228.395H305.714L302.965 252.089Z" fill="#E6F2FF"/>
<path d="M333.625 252.089H309.93L312.679 228.395H336.374L333.625 252.089Z" fill="#E6F2FF"/>
<path d="M364.289 252.089H340.594L343.343 228.395H367.038L364.289 252.089Z" fill="#E6F2FF"/>
<path d="M268.788 282.388H245.094L247.843 258.693H271.537L268.788 282.388Z" fill="#E6F2FF"/>
<path d="M299.448 282.388H275.754L278.503 258.693H302.197L299.448 282.388Z" fill="#E6F2FF"/>
<path d="M330.108 282.388H306.414L309.163 258.693H332.857L330.108 282.388Z" fill="#E6F2FF"/>
<path d="M360.772 282.388H337.078L339.827 258.693H363.521L360.772 282.388Z" fill="#E6F2FF"/>
<path d="M265.272 312.689H241.578L244.327 288.994H268.021L265.272 312.689Z" fill="#E6F2FF"/>
<path d="M295.932 312.689H272.238L274.986 288.994H298.681L295.932 312.689Z" fill="#E6F2FF"/>
<path d="M326.593 312.689H302.898L305.647 288.994H329.342L326.593 312.689Z" fill="#E6F2FF"/>
<path d="M357.254 312.689H333.559L336.308 288.994H360.003L357.254 312.689Z" fill="#E6F2FF"/>
<path d="M259.439 361.695C259.655 359.837 261.342 358.326 263.2 358.326H284.61C286.621 358.326 288.483 357.172 289.468 355.313C290.453 353.455 290.284 351.417 289.027 349.995L280.715 340.592C279.901 339.67 278.734 339.163 277.43 339.163H251.389C249.958 339.163 248.784 338.255 248.47 336.903L247.367 332.165C247.124 331.121 247.412 330.006 248.156 329.104C248.901 328.203 249.962 327.686 251.068 327.686H286.989C287.881 327.686 288.682 328.031 289.244 328.658L302.691 343.653C302.807 342.993 302.94 342.335 303.075 341.684L290.429 327.583C289.615 326.676 288.455 326.176 287.163 326.176H251.242C249.641 326.176 248.103 326.925 247.025 328.23C245.946 329.536 245.529 331.151 245.881 332.663L246.984 337.401C247.44 339.359 249.139 340.674 251.212 340.674H277.253C278.153 340.674 278.959 341.024 279.521 341.661L287.833 351.064C288.871 352.237 288.67 353.731 288.137 354.736C287.604 355.742 286.442 356.816 284.782 356.816H263.372C260.681 356.816 258.238 359.005 257.926 361.696L257.35 366.662C257.038 369.353 258.973 371.542 261.664 371.542H285.32C287.178 371.542 288.514 373.054 288.292 374.969C288.077 376.827 286.389 378.339 284.531 378.339H237.21L237.035 379.849H284.356C287.047 379.849 289.49 377.66 289.809 374.912C290.121 372.221 288.186 370.032 285.495 370.032H261.839C259.981 370.032 258.645 368.52 258.86 366.662L259.439 361.695Z" fill="#E6F2FF"/>
<path d="M311.488 331.499C311.041 335.351 302.881 345.576 302.881 345.576C302.881 345.576 297.094 335.351 297.54 331.499C297.986 327.647 301.471 324.525 305.323 324.525C309.175 324.525 311.935 327.647 311.488 331.499Z" fill="#ACDAFF"/>
<path d="M306.972 333.758C308.566 332.254 308.773 329.884 307.433 328.464C306.094 327.045 303.715 327.113 302.121 328.618C300.527 330.122 300.32 332.493 301.66 333.912C302.999 335.332 305.378 335.263 306.972 333.758Z" fill="white"/>
<path d="M243.959 383.119C246.45 380.768 246.772 377.064 244.679 374.846C242.586 372.627 238.869 372.735 236.378 375.085C233.887 377.436 233.564 381.14 235.658 383.359C237.751 385.577 241.468 385.47 243.959 383.119Z" fill="#ACDAFF"/>
<path d="M242.124 381.177C243.41 379.963 243.576 378.052 242.496 376.906C241.415 375.761 239.497 375.816 238.211 377.03C236.925 378.243 236.759 380.155 237.839 381.3C238.92 382.445 240.838 382.39 242.124 381.177Z" fill="white"/>
<path d="M185.175 270.661C185.175 270.661 197.623 252.542 199.596 248.23C201.569 243.918 201.784 240.251 198.691 238.011C195.598 235.771 189.897 234.014 184.858 241.114C179.82 248.215 170.506 270.023 170.125 276.846C169.744 283.669 200.598 304.327 203.34 305.662C206.362 304.872 207.644 300.359 207.644 300.359C207.644 300.359 187.722 275.067 185.175 270.661Z" fill="#FF9900"/>
<path d="M195.389 420.569C195.389 420.569 196.014 424.149 193.968 429.547C191.922 434.945 191.809 436.65 193.968 437.843C196.127 439.036 197.662 439.377 203.685 437.843C209.708 436.309 216.414 432.956 216.414 432.956C216.414 432.956 209.879 428.808 208.288 427.046C206.697 425.284 203.344 418.977 203.401 418.068C203.458 417.16 195.389 420.569 195.389 420.569Z" fill="#F79E77"/>
<path d="M211.768 429.84C209.344 431.456 207.029 433.222 203.925 432.779C201.433 432.156 200.499 429.664 198.941 427.795C197.867 426.936 196.201 426.67 194.759 427.098C194.555 427.863 194.296 428.681 193.968 429.547C191.922 434.945 191.809 436.65 193.968 437.843C196.127 439.036 197.662 439.377 203.685 437.843C209.708 436.309 216.414 432.956 216.414 432.956C216.414 432.956 214.013 431.433 211.768 429.84Z" fill="#0C2C51"/>
<path d="M268.453 234.117L275.996 237.364C278.497 234.264 280.376 231.928 281.603 231.674C284.796 232.102 286.166 230.751 287.02 229.66C287.874 228.57 286.806 227.945 286.945 227.527C287.827 226.229 286.331 225.719 286.571 225.412C287.498 224.33 287.326 223.744 286.767 223.448C286.208 223.152 285.266 222.877 285.439 222.333C285.612 221.789 287.907 220.339 289.902 219.394C291.897 218.449 294.091 216.933 292.877 216.136C291.663 215.339 280.329 220.784 278.208 223.107C276.087 225.43 276.633 227.903 273.973 230.462C273.008 231.391 270.869 232.765 268.453 234.117Z" fill="#FFB797"/>
<path d="M203.267 419.469C203.267 419.469 203.797 426.818 201.449 432.804C199.1 438.789 199.782 441.441 204.025 442.654C208.268 443.867 210.617 440.987 216.148 441.139C221.679 441.291 229.028 440.684 230.922 435.608C232.816 430.532 223.974 432.8 218.621 431.211C213.268 429.622 215.648 420.227 215.648 420.227L203.267 419.469Z" fill="#FFAE83"/>
<path d="M218.771 431.105C218.291 432.714 222.656 434.412 221.367 435.271C216.695 438.697 211.088 432.779 205.793 430.91C204.714 430.371 203.428 430.352 202.174 430.611C201.969 431.352 201.73 432.088 201.449 432.805C199.1 438.791 199.782 441.442 204.025 442.655C208.268 443.867 210.617 440.988 216.148 441.14C221.679 441.292 232.141 440.244 234.035 435.168C235.909 430.142 224.138 432.601 218.771 431.105Z" fill="#0F3163"/>
<path d="M233.384 432.742C233.354 432.861 233.32 432.982 233.272 433.11C231.378 438.186 220.916 439.234 215.385 439.082C209.854 438.93 207.505 441.81 203.262 440.597C201.806 440.181 200.78 439.59 200.141 438.758C200.323 440.774 201.579 441.955 204.023 442.653C208.266 443.865 210.615 440.986 216.145 441.138C221.676 441.29 232.138 440.242 234.032 435.166C234.468 434.004 234.164 433.245 233.384 432.742Z" fill="#0C2C51"/>
<path d="M212.206 325.218C209.31 323.846 207.363 321.808 206.1 319.553C203.598 315.083 203.798 309.754 204.705 307.034C206.069 302.943 211.524 292.639 211.524 292.639L198.113 290.158C198.113 290.158 192.09 300.557 189.021 308.74C185.952 316.923 188.453 325.56 189.93 332.038C191.407 338.516 195.158 357.041 193.567 363.973C191.976 370.906 189.021 381.475 189.817 389.544C190.613 397.613 194.59 416.82 194.477 421.138C195.819 421.738 197.133 421.942 198.347 421.913C201.966 421.826 204.705 419.66 204.705 419.66C204.705 419.66 205.614 386.588 209.024 372.041C212.433 357.494 215.843 330.446 212.206 325.218Z" fill="#144182"/>
<path d="M212.207 325.218C209.311 323.846 207.364 321.808 206.101 319.553C200.426 316.871 204.383 306.456 203.923 300.027C201.676 306.233 193.079 317.419 204.827 331.358C209.008 335.241 204.927 365.705 201.342 379.444C198.129 391.093 199.533 409.802 200.101 421.706C202.813 421.15 204.705 419.66 204.705 419.66C204.705 419.66 205.614 386.588 209.024 372.041C212.434 357.494 215.844 330.446 212.207 325.218Z" fill="#0F3163"/>
<path d="M233.651 292.486C233.651 292.486 237.591 307.488 236.379 323.55C235.167 339.612 224.408 366.585 223.196 372.495C221.984 378.405 220.317 395.399 218.802 403.04C217.287 410.681 216.529 417.803 217.362 419.773C213.801 423.561 204.33 423.107 202.209 419.773C202.967 404.165 202.588 390.755 205.543 380.223C208.498 369.691 206.679 366.964 207.892 360.372C209.104 353.78 210.316 333.399 210.923 330.975C211.529 328.551 205.468 327.338 203.271 323.398C201.074 319.458 196.528 309.987 209.105 290.667C222.513 290.213 233.651 292.486 233.651 292.486Z" fill="#144182"/>
<path d="M233.651 292.486C233.651 292.486 222.513 290.213 209.103 290.668C208.851 291.055 208.617 291.432 208.379 291.811C219.44 291.952 227.91 293.68 227.91 293.68C227.91 293.68 231.85 308.682 230.638 324.744C229.426 340.806 220.834 367.331 219.622 373.241C218.41 379.151 217.93 395.375 216.415 403.016C215.108 409.605 214.869 417.803 215.362 421.202C216.131 420.817 216.821 420.351 217.362 419.774C216.529 417.804 217.286 410.682 218.802 403.041C220.317 395.4 221.984 378.406 223.196 372.496C224.408 366.586 235.167 339.614 236.379 323.551C237.591 307.488 233.651 292.486 233.651 292.486Z" fill="#164E91"/>
<path d="M226.753 201.871C226.753 201.871 227.889 215.357 226.374 219.524C224.859 223.691 223.343 226.722 222.51 227.555C221.677 228.388 217.665 226.873 216.868 227.555C216.07 228.237 216.146 236.041 216.146 236.041L205.008 235.586C205.008 235.586 206.296 221.494 207.281 217.63C208.266 213.766 225.617 201.568 226.753 201.871Z" fill="#FFAE83"/>
<path d="M200.39 235.322C200.39 235.322 209.027 231.003 216.074 234.413C223.12 237.822 234.144 252.142 235.849 254.87C237.554 257.598 238.69 263.735 235.849 269.303C233.008 274.872 234.031 291.237 235.508 294.078C223.575 297.601 205.05 295.328 196.527 291.578C201.3 284.645 203.801 282.032 200.391 274.417C196.981 266.802 192.889 245.209 200.39 235.322Z" fill="#FFAA00"/>
<path d="M230.481 270.352C233.322 264.783 232.186 258.646 230.481 255.919C228.776 253.191 217.752 238.872 210.706 235.462C208.272 234.284 205.654 234.039 203.262 234.209C201.51 234.765 200.387 235.321 200.387 235.321C192.886 245.208 196.977 266.802 200.387 274.416C203.796 282.03 201.296 284.644 196.523 291.577C203.695 294.733 217.949 296.842 229.398 295.332C229.647 295.265 229.897 295.199 230.14 295.127C228.662 292.286 227.64 275.921 230.481 270.352Z" fill="#FF9900"/>
<path d="M243.916 251.8C243.916 251.8 225.932 239.158 221.641 237.139C217.35 235.12 213.686 234.866 211.413 237.935C209.14 241.004 207.322 246.686 214.368 251.8C221.414 256.914 243.121 266.461 249.94 266.915C256.759 267.37 277.746 236.739 279.11 234.011C278.352 230.98 273.854 229.65 273.854 229.65C273.854 229.65 248.348 249.3 243.916 251.8Z" fill="#FFBC00"/>
<path d="M214.368 251.799C214.129 251.625 213.923 251.461 213.703 251.293C213.915 251.462 214.136 251.631 214.368 251.799Z" fill="#FF69A6"/>
<path d="M210.973 240.902C213.246 237.833 216.911 238.088 221.201 240.106C225.492 242.125 242.791 253.429 242.791 253.429C247.223 250.929 273.852 229.648 273.852 229.648C273.852 229.648 248.348 249.299 243.916 251.799C243.916 251.799 225.932 239.157 221.641 237.138C217.35 235.119 213.686 234.865 211.413 237.934C210.35 239.37 209.386 241.378 209.383 243.632C209.701 242.705 210.294 241.819 210.973 240.902Z" fill="#FFD815"/>
<path d="M225.921 195.506C220.769 190.354 211.222 188.384 211.222 188.384C203.121 185.633 196.827 193.233 195.008 200.052C193.19 206.871 194.084 214.805 191.296 223.765C189.886 228.132 169.709 259.384 196.161 282.019C202.885 285.341 208.032 286.803 215.3 281.196C207.642 262.99 210.062 245.518 211.606 240.279C213.099 235.213 216.167 235.025 218.982 236.071C219.11 236.121 219.236 236.17 219.368 236.223C219.106 235.71 218.767 235.12 218.366 234.473C216.948 230.247 218.283 221.481 221.185 218.386C224.594 214.749 226.186 208.84 226.754 204.521C227.55 209.635 225.731 212.817 224.481 214.636C229.368 210.886 231.073 200.658 225.921 195.506Z" fill="#144182"/>
<path d="M193.478 263.259C190.491 242.352 198.854 220.847 206.62 201.135C208.944 195.093 215.607 192.307 222.389 192.774C217.312 189.643 211.222 188.384 211.222 188.384C203.121 185.633 196.827 193.233 195.008 200.052C193.19 206.871 194.084 214.805 191.296 223.765C189.886 228.132 169.709 259.384 196.161 282.019C201.597 284.705 206.002 286.173 211.33 283.676C209.058 283.271 206.398 281.787 205.833 281.329C199.86 277.148 194.673 270.427 193.478 263.259Z" fill="#0F3163"/>
<path d="M353.764 282.22C353.764 282.22 342.306 248.303 352.619 238.562C362.933 228.821 350.133 214.996 353.165 205.991C356.197 196.986 367.3 191.636 372.141 208.156C376.982 224.676 378.355 225.187 390.524 225.948C402.693 226.709 401.757 251.21 399.605 262.483C397.453 273.756 409.405 255.949 413.019 268.049C416.633 280.149 399.123 305.1 380.704 318.104C362.285 331.107 339.759 294.123 341.306 284.873C342.855 275.622 349.615 288.005 353.764 282.22Z" fill="#82C4E8"/>
<path d="M355.388 234.908C354.749 236.174 353.855 237.397 352.622 238.562C342.308 248.303 353.767 282.22 353.767 282.22C349.617 288.005 342.857 275.622 341.31 284.872C339.763 294.122 362.289 331.107 380.708 318.103C381.697 317.405 382.683 316.666 383.663 315.902C381.527 286.97 371.756 259.235 355.388 234.908Z" fill="#6CB7D8"/>
<path d="M374.441 321.32C374.256 321.524 373.973 321.629 373.683 321.573C373.24 321.488 372.95 321.061 373.035 320.618C373.123 320.157 381.616 273.757 360.156 206.494C360.018 206.065 360.255 205.604 360.685 205.469C361.114 205.331 361.574 205.569 361.71 205.998C383.306 273.687 374.726 320.461 374.636 320.925C374.608 321.079 374.538 321.213 374.441 321.32Z" fill="#98CFF4"/>
<path d="M366.598 226.445L355.745 217.699C355.394 217.417 355.339 216.903 355.622 216.552C355.905 216.207 356.419 216.146 356.769 216.429L366.159 223.995L371.108 215.702C371.342 215.31 371.84 215.188 372.227 215.419C372.614 215.65 372.741 216.151 372.51 216.538L366.598 226.445Z" fill="#98CFF4"/>
<path d="M393.14 233.094C393.123 233.113 393.105 233.131 393.086 233.149L371.969 252.466L355.193 241.068C354.82 240.815 354.724 240.307 354.977 239.934C355.229 239.558 355.738 239.465 356.111 239.718L371.82 250.39L391.985 231.944C392.318 231.64 392.834 231.663 393.138 231.996C393.424 232.309 393.42 232.786 393.14 233.094Z" fill="#98CFF4"/>
<path d="M397.713 260.027C397.705 260.036 397.696 260.045 397.688 260.054L375.312 282.617L353.218 265.004C352.865 264.723 352.807 264.209 353.088 263.857C353.388 263.5 353.882 263.447 354.235 263.727L375.184 280.427L396.529 258.905C396.846 258.585 397.363 258.583 397.683 258.9C397.994 259.209 398.005 259.706 397.713 260.027Z" fill="#98CFF4"/>
<path d="M407.339 275.93C407.332 275.938 407.324 275.947 407.316 275.954L375.366 308.415L347.978 289.264C347.609 289.005 347.518 288.497 347.776 288.127C348.039 287.761 348.544 287.667 348.913 287.925L375.171 306.287L406.153 274.81C406.469 274.489 406.986 274.484 407.307 274.801C407.619 275.109 407.631 275.608 407.339 275.93Z" fill="#98CFF4"/>
<path d="M349.048 357.544C349.048 357.544 324.012 345.016 324.377 333.927C324.742 322.839 310.023 322.207 306.749 315.537C303.475 308.867 306.696 299.783 318.48 306.292C330.264 312.801 331.307 312.33 338.484 306.053C345.661 299.776 358.63 313.899 363.641 321.344C368.652 328.789 365.487 312.32 374.155 317.05C382.823 321.78 386.835 345.277 383.765 362.639C380.694 380.001 347.823 371.862 343.589 365.873C339.357 359.886 349.929 363.041 349.048 357.544Z" fill="#98CFF4"/>
<path d="M323.902 330.375C324.244 331.43 324.421 332.602 324.377 333.927C324.012 345.015 349.048 357.544 349.048 357.544C349.928 363.041 339.356 359.886 343.59 365.875C347.823 371.864 380.695 380.003 383.766 362.641C383.931 361.709 384.071 360.756 384.196 359.792C367.081 344.898 346.385 334.874 323.902 330.375Z" fill="#82C4E8"/>
<path d="M382.058 367.876C382.067 368.091 381.968 368.305 381.776 368.434C381.483 368.631 381.087 368.553 380.891 368.26C380.686 367.956 359.858 337.51 310.91 311.968C310.597 311.805 310.475 311.419 310.64 311.107C310.803 310.794 311.189 310.673 311.501 310.837C360.76 336.541 381.745 367.241 381.951 367.549C382.018 367.65 382.053 367.763 382.058 367.876Z" fill="#ACDAFF"/>
<path d="M325.471 319.504L314.629 320.622C314.279 320.659 313.965 320.403 313.929 320.053C313.896 319.706 314.148 319.389 314.498 319.353L323.879 318.386L322.062 311.056C321.976 310.71 322.186 310.367 322.528 310.283C322.87 310.198 323.216 310.407 323.301 310.749L325.471 319.504Z" fill="#ACDAFF"/>
<path d="M343.87 308.585C343.871 308.605 343.871 308.625 343.87 308.645L342.777 330.999L327.185 333.905C326.839 333.969 326.505 333.741 326.441 333.394C326.374 333.046 326.605 332.714 326.952 332.65L341.552 329.929L342.596 308.583C342.614 308.231 342.913 307.96 343.265 307.977C343.595 307.993 343.855 308.259 343.87 308.585Z" fill="#ACDAFF"/>
<path d="M361.241 321.025C361.241 321.034 361.242 321.044 361.242 321.054L361.236 345.903L339.269 348.285C338.918 348.323 338.603 348.07 338.565 347.72C338.535 347.356 338.78 347.055 339.13 347.016L359.958 344.758L359.964 321.054C359.964 320.702 360.25 320.416 360.602 320.416C360.946 320.416 361.226 320.686 361.241 321.025Z" fill="#ACDAFF"/>
<path d="M375.338 324.558C375.338 324.567 375.339 324.575 375.339 324.584L375.465 360.201L349.711 364.643C349.364 364.703 349.033 364.47 348.973 364.123C348.917 363.775 349.147 363.445 349.493 363.385L374.185 359.127L374.062 324.589C374.061 324.237 374.345 323.95 374.698 323.949C375.042 323.947 375.323 324.218 375.338 324.558Z" fill="#ACDAFF"/>
<path d="M414.376 341.363C414.376 341.363 435.799 312.68 429.02 300.218C422.241 287.756 438.7 278.588 438.614 269.087C438.528 259.586 429.635 251.053 419.903 265.253C410.171 279.453 408.708 279.513 396.904 276.458C385.101 273.403 378.382 296.984 376.928 308.368C375.474 319.752 369.641 299.114 362.449 309.493C355.257 319.872 364.154 349.028 377.625 367.107C391.096 385.187 423.992 357.024 425.394 347.751C426.796 338.478 416.525 348.15 414.376 341.363Z" fill="#ACDAFF"/>
<path d="M427.526 295.887C427.74 297.288 428.211 298.73 429.021 300.219C435.8 312.681 414.377 341.364 414.377 341.364C416.526 348.151 426.796 338.479 425.395 347.753C423.993 357.026 391.097 385.189 377.626 367.109C376.903 366.138 376.195 365.13 375.5 364.099C386.514 337.26 404.413 313.929 427.526 295.887Z" fill="#98CFF4"/>
<path d="M382.58 372.111C382.692 372.362 382.929 372.55 383.222 372.587C383.669 372.644 384.078 372.327 384.134 371.88C384.194 371.415 390.527 324.67 431.811 267.395C432.075 267.029 431.994 266.518 431.626 266.256C431.26 265.992 430.75 266.075 430.487 266.441C388.942 324.079 382.575 371.205 382.515 371.675C382.495 371.829 382.52 371.979 382.58 372.111Z" fill="#D2EDFF"/>
<path d="M419.496 284.361L432.528 279.417C432.949 279.258 433.161 278.786 433.001 278.365C432.839 277.949 432.37 277.732 431.949 277.892L420.673 282.169L418.543 272.749C418.442 272.304 418.006 272.033 417.567 272.132C417.127 272.231 416.851 272.669 416.95 273.108L419.496 284.361Z" fill="#D2EDFF"/>
<path d="M392.2 282.44C392.21 282.463 392.222 282.486 392.234 282.509L406.309 307.428L425.795 301.802C426.228 301.677 426.478 301.224 426.352 300.791C426.229 300.355 425.774 300.108 425.341 300.234L407.095 305.501L393.654 281.705C393.432 281.313 392.934 281.175 392.542 281.396C392.174 281.606 392.03 282.06 392.2 282.44Z" fill="#D2EDFF"/>
<path d="M379.49 306.623C379.495 306.634 379.5 306.646 379.506 306.656L393.77 335.051L420.241 325.169C420.664 325.011 420.878 324.541 420.721 324.119C420.547 323.686 420.093 323.482 419.671 323.639L394.572 333.009L380.964 305.923C380.762 305.52 380.271 305.358 379.869 305.56C379.476 305.757 379.312 306.227 379.49 306.623Z" fill="#D2EDFF"/>
<path d="M365.403 318.751C365.408 318.761 365.412 318.771 365.417 318.781L385.709 359.558L417.69 349.857C418.121 349.726 418.365 349.271 418.235 348.839C418.099 348.409 417.647 348.164 417.217 348.294L386.556 357.595L366.879 318.054C366.678 317.651 366.188 317.486 365.785 317.687C365.391 317.883 365.225 318.354 365.403 318.751Z" fill="#D2EDFF"/>
<path d="M343.566 369.584H406.637L393.52 432.024H352.856L343.566 369.584Z" fill="#FF9900"/>
<path d="M401.219 395.381H347.406L348.378 401.912H399.848L401.219 395.381Z" fill="#FFBC00"/>
<path d="M399.255 404.732H348.797L349.283 407.997H398.569L399.255 404.732Z" fill="#FFBC00"/>
<path d="M408.412 368.549H341.672V377.422H408.412V368.549Z" fill="#FFBC00"/>
</g>
<defs>
<clipPath id="clip0_585_9">
<rect width="500" height="500" fill="white"/>
</clipPath>
</defs>
</svg>
