<?xml version="1.0" encoding="UTF-8" standalone="no"?>
<!DOCTYPE svg PUBLIC "-//W3C//DTD SVG 1.1//EN" "http://www.w3.org/Graphics/SVG/1.1/DTD/svg11.dtd">
<svg width="100%" height="100%" viewBox="0 0 591 409" version="1.1" xmlns="http://www.w3.org/2000/svg" xmlns:xlink="http://www.w3.org/1999/xlink" xml:space="preserve" xmlns:serif="http://www.serif.com/" style="fill-rule:evenodd;clip-rule:evenodd;stroke-linecap:round;stroke-miterlimit:2;">
    <g transform="matrix(1,0,0,1,-0.603681,-1.207379)">
        <path d="M465.507,166.609C465.507,258.241 361.3,332.524 232.754,332.524C104.207,332.524 0,258.241 0,166.609C0,74.977 104.207,0.694 232.754,0.694C361.3,0.694 465.507,74.977 465.507,166.609Z" style="fill:rgb(240,240,248);fill-rule:nonzero;"/>
        <path d="M590.268,385.54C590.268,393.682 542.698,400.282 484.017,400.282C425.337,400.282 377.767,393.682 377.767,385.54C377.767,377.399 425.337,370.799 484.017,370.799C542.698,370.799 590.268,377.399 590.268,385.54Z" style="fill:rgb(214,216,229);fill-rule:nonzero;"/>
        <path d="M453.262,392.653C453.262,401.681 367.324,409 261.315,409C155.305,409 69.366,401.681 69.366,392.653C69.366,383.626 155.305,376.307 261.315,376.307C367.324,376.307 453.262,383.626 453.262,392.653Z" style="fill:rgb(214,216,229);fill-rule:nonzero;"/>
        <path d="M298.012,102.931C298.012,102.931 294.459,123.548 268.577,150.085C268.577,150.085 265.718,146.545 270.666,131.879C275.615,117.212 296.536,97.938 298.012,102.931Z" style="fill:rgb(106,160,115);fill-rule:nonzero;"/>
        <path d="M298.012,102.931C298.012,102.931 274.722,119.59 268.577,150.085C268.577,150.085 267.387,160.544 270.971,169.605" style="fill:none;stroke:black;stroke-width:1px;"/>
        <path d="M235.412,119.586C235.412,119.586 241.946,114.634 230.705,102.269C220.027,90.523 208.722,79.99 186.626,76.13C186.626,76.13 193.295,106.059 207.693,113.193C222.091,120.327 235.412,119.586 235.412,119.586Z" style="fill:rgb(106,160,115);fill-rule:nonzero;"/>
        <path d="M181.78,141.592C181.78,141.592 204.834,146.621 243.932,133.573C243.932,133.573 241.508,129.531 224.037,128.172C206.567,126.813 177.23,138.234 181.78,141.592Z" style="fill:rgb(106,160,115);fill-rule:nonzero;"/>
        <path d="M181.78,141.592C181.78,141.592 209.439,126.95 243.932,133.573C243.932,133.573 247.48,134.461 251.093,139.287" style="fill:none;stroke:black;stroke-width:1px;"/>
        <path d="M200.888,162.479C200.888,162.479 225.557,178.718 264.656,165.671C264.656,165.671 257.053,151.915 239.582,150.556C222.111,149.196 196.337,159.12 200.888,162.479Z" style="fill:rgb(106,160,115);fill-rule:nonzero;"/>
        <path d="M200.888,162.479C200.888,162.479 227.478,150.072 264.656,165.671C264.656,165.671 269.028,167.617 272.641,172.443" style="fill:none;stroke:black;stroke-width:1px;"/>
        <path d="M284.392,83.409C284.392,83.409 291.673,82.537 273.906,98.973C257.129,114.492 259.262,114.613 259.262,114.613C259.262,114.613 265.628,91.391 284.392,83.409Z" style="fill-rule:nonzero;"/>
        <path d="M247.058,122.474C247.058,122.474 252.495,124.571 262.303,115.57C272.111,106.569 275.768,86.51 284.392,83.409C284.392,83.409 262.754,90.399 247.058,122.474Z" style="fill:rgb(106,160,115);fill-rule:nonzero;"/>
        <path d="M282.719,191.397C271.656,169.113 256.297,143.797 235.412,119.586C235.412,119.586 230.281,112.866 212.456,95.448C194.63,78.029 186.626,76.13 186.626,76.13" style="fill:none;stroke:black;stroke-width:1px;"/>
        <path d="M281.837,84.478C281.837,84.478 261.247,93.463 247.058,122.474C243.62,129.503 247.733,135.065 251.093,139.287" style="fill:none;stroke:black;stroke-width:1px;"/>
        <path d="M469.594,324.985C469.594,324.985 452.384,337.684 412.731,328.363C412.731,328.363 412.837,322.004 427.068,315.886C441.299,309.769 471.843,319.095 469.594,324.985Z" style="fill:rgb(106,160,115);fill-rule:nonzero;"/>
        <path d="M468.363,323.826C468.363,323.826 441.206,314.75 412.91,327.676C412.91,327.676 403.744,332.851 398.512,341.071" style="fill:none;stroke:black;stroke-width:1px;"/>
        <path d="M412.214,297.047C412.214,297.047 420.058,299.43 423.471,283.072C426.713,267.532 428.604,252.196 418.758,232.042C418.758,232.042 398.442,255.009 401.118,270.853C403.794,286.697 412.214,297.047 412.214,297.047Z" style="fill:rgb(106,160,115);fill-rule:nonzero;"/>
        <path d="M470.541,303.178C470.541,303.178 476.593,307.318 452.399,307.981C429.554,308.607 431.079,310.103 431.079,310.103C431.079,310.103 451.165,296.823 470.541,303.178Z" style="fill-rule:nonzero;"/>
        <path d="M416.718,307.978C416.718,307.978 419.428,313.138 432.736,312.826C446.045,312.514 462.01,299.83 470.541,303.178C470.541,303.178 449.656,294.184 416.718,307.978Z" style="fill:rgb(106,160,115);fill-rule:nonzero;"/>
        <path d="M381.845,377.499C393.392,355.462 404.872,328.167 412.214,297.047C412.214,297.047 414.642,288.949 418.281,264.293C421.92,239.637 418.758,232.042 418.758,232.042" style="fill:none;stroke:black;stroke-width:1px;"/>
        <path d="M467.915,302.299C467.915,302.299 446.504,295.496 416.718,307.978C409.502,311.002 407.453,315.777 404.404,324.63" style="fill:none;stroke:black;stroke-width:1px;"/>
        <path d="M195.346,178.163C189.776,178.163 184.384,176.208 180.107,172.64L168.242,162.739C163.972,159.176 158.9,157.267 153.703,157.267L94.816,157.267C89.472,157.267 85.14,161.599 85.14,166.943L85.14,380.131C85.14,389.352 92.615,396.827 101.837,396.827L395.388,396.827C402.56,396.827 408.374,391.013 408.374,383.841L408.374,191.149C408.374,183.977 402.56,178.163 395.388,178.163L195.346,178.163Z" style="fill:rgb(38,60,113);fill-rule:nonzero;"/>
        <path d="M408.373,384.929C408.373,384.929 388.395,347.454 386.397,343.151L331.798,231.919C330.426,228.963 327.463,227.073 324.204,227.073L121.31,227.073C113.934,227.073 103.266,223.206 97.602,218.48L89.415,211.649C85.145,208.086 80.073,206.177 74.876,206.177L18.836,206.177C12.871,206.177 8.819,212.237 11.098,217.749L78.864,381.648C82.662,390.835 91.624,396.827 101.566,396.827L404.709,396.827C406.685,396.827 408.509,395.135 408.509,393.159L408.373,384.929Z" style="fill:rgb(101,125,189);fill-rule:nonzero;"/>
        <path d="M325.846,237.649L405.964,393.39" style="fill:none;stroke:black;stroke-width:1px;stroke-linecap:butt;stroke-linejoin:round;"/>
        <path d="M292.833,264.487L223.82,264.487C221.938,264.487 220.187,263.541 219.176,261.977C216.844,258.369 219.477,253.646 223.82,253.646L292.833,253.646C294.715,253.646 296.467,254.593 297.477,256.157C299.809,259.766 297.177,264.487 292.833,264.487Z" style="fill:none;stroke:black;stroke-width:1px;stroke-linecap:butt;stroke-linejoin:round;"/>
        <path d="M163.736,318.015L217.469,350.028" style="fill:none;stroke:black;stroke-width:1px;stroke-linejoin:round;"/>
        <path d="M207.669,316.473L173.905,350.221" style="fill:none;stroke:black;stroke-width:1px;stroke-linejoin:round;"/>
        <path d="M207.388,307.891C227.132,317.648 235.324,337.142 225.686,351.432C216.047,365.721 192.228,369.395 172.484,359.638C152.74,349.881 144.548,330.387 154.186,316.097C163.825,301.807 187.644,298.133 207.388,307.891Z" style="fill:none;stroke:black;stroke-width:1px;stroke-linejoin:round;"/>
        <path d="M468.111,178.268C469.4,172.698 463.473,165.754 457.862,166.849C453.294,167.74 451.02,168.835 450.286,169.077C448.852,169.55 438.143,168.853 436.917,170.636C436.029,171.928 441.616,173.42 445.189,173.776C445.924,173.849 446.142,174.811 445.513,175.2C442.002,177.377 435.012,181.802 434.418,182.895C433.621,184.36 429.99,190.057 431.013,190.689C432.036,191.322 435.13,188.476 437.14,186.456C439.151,184.436 445.026,182.719 445.026,182.719C445.026,182.719 434.81,192.971 433.464,195.814C431.459,200.048 437.276,198.191 437.276,198.191C436.366,200.583 441.137,200.059 442.265,199.156C444.493,197.374 451.38,189.063 451.4,189.91C451.421,190.756 444.285,199.811 445.008,201.926C445.731,204.041 448.616,201.388 450.286,199.156C451.956,196.925 456.859,190.689 456.859,190.689C456.859,190.689 462.429,186.623 467.079,179.6C467.117,179.544 468.096,178.333 468.111,178.268Z" style="fill:rgb(241,154,125);fill-rule:nonzero;"/>
        <path d="M437.531,197.961L447.278,186.345" style="fill:none;stroke:black;stroke-width:1px;"/>
        <path d="M394.838,145.319L429.899,123.444C430.117,123.302 430.324,123.145 430.519,122.974L442.081,111.076C444.598,108.871 448.481,109.385 450.337,112.169L456.004,120.67C457.204,122.47 457.245,124.804 456.11,126.645L447.973,139.848C447.374,140.82 446.497,141.58 445.448,142.029C438.9,144.833 413.887,155.398 398.966,159.613C395.261,160.66 391.66,157.644 391.985,153.807L392.35,149.486C392.494,147.788 393.411,146.251 394.838,145.319Z" style="fill:rgb(128,200,142);fill-rule:nonzero;"/>
        <path d="M475.588,363.892L473.734,376.487C473.734,376.487 438.991,389.833 442.214,390.027C445.437,390.22 495.364,387.315 495.364,387.315L492.426,364.448L475.588,363.892Z" style="fill-rule:nonzero;"/>
        <path d="M485.266,160.057C485.266,160.057 488.035,186.705 490.111,188.089C492.188,189.474 494.956,190.166 494.956,190.166L490.457,159.711L485.266,160.057Z" style="fill:none;stroke:rgb(55,59,61);stroke-width:1px;stroke-linecap:butt;"/>
        <path d="M540.13,141.741C540.13,141.741 554.212,170.417 550.123,186.394L472.062,175.657L473.69,145.866L540.13,141.741Z" style="fill-rule:nonzero;"/>
        <path d="M542.274,147.55C542.274,147.55 531.24,167.983 510.126,169.617" style="fill:none;stroke:rgb(55,59,61);stroke-width:1px;"/>
        <path d="M524.611,165.258C524.611,165.258 528.888,178.503 541.304,178.776" style="fill:none;stroke:rgb(55,59,61);stroke-width:1px;"/>
        <path d="M472.062,175.657C472.062,175.657 451.148,250.113 450.605,274.084L465.886,366.427C465.886,366.427 480.463,373.675 495.646,367.818C496.268,367.578 487.949,319.924 487.363,270.858L531.008,179.539L472.062,175.657Z" style="fill-rule:nonzero;"/>
        <path d="M550.468,183.271L547.394,273.121L581.77,367.056C581.77,367.056 567.385,379.209 549.215,368.148L511.892,278.705L515.721,213.624L499.455,203.775L497.033,175.588L550.468,183.271Z" style="fill-rule:nonzero;"/>
        <path d="M490.058,166.849L506.63,179.334L530.387,152.812L472.679,161.056L486.8,179.78L490.058,166.849Z" style="fill:white;fill-rule:nonzero;"/>
        <path d="M557.48,362.372L554.48,373.24C554.48,373.24 532.563,397.012 535.792,397.012C539.023,397.012 575.014,382.296 575.014,382.296L570.4,359.655L557.48,362.372Z" style="fill-rule:nonzero;"/>
        <path d="M537.324,154.452C537.324,154.452 546.805,177.754 539.974,275.506C539.974,275.506 563.917,328.201 576.333,369.88" style="fill:none;stroke:rgb(55,59,61);stroke-width:1px;"/>
        <path d="M502.484,206.104L478.589,272.662L488.836,369.88" style="fill:none;stroke:rgb(55,59,61);stroke-width:1px;"/>
        <path d="M398.27,158.459C398.27,158.459 398.734,160.79 393.573,162.57C388.412,164.35 385.375,163.785 385.375,163.785C385.375,163.785 373.797,150.13 373.283,149.647C372.77,149.165 373.644,143.913 377.069,141.81C379.149,140.534 387.215,142.615 393.232,144.448C397.426,145.725 400.014,149.926 399.309,154.253C399.032,155.954 398.686,157.53 398.27,158.459Z" style="fill:rgb(241,154,125);fill-rule:nonzero;"/>
        <path d="M388.774,154.835C388.774,154.835 379.308,153.461 375.308,150.163C375.308,150.163 369.33,148.958 368.06,149.713C366.789,150.467 365.749,151.538 363,152.001C360.251,152.465 361.08,150.635 363.968,148.038C364.793,147.296 367,144.629 368.915,144.268C371.492,143.783 377.069,141.81 377.069,141.81L388.259,155.188" style="fill:rgb(241,154,125);fill-rule:nonzero;"/>
        <path d="M385.375,163.785C385.375,163.785 381.537,166.193 380.187,166.128C378.837,166.062 377.562,165.258 377.232,163.039C377.232,163.039 370.084,164.351 372.349,158.942C372.349,158.942 368.031,158.242 367.916,155.424C367.916,155.424 364.081,153.513 364.919,150.449C365.758,147.385 377.791,147.663 377.791,147.663L390.558,154.146L385.375,163.785Z" style="fill:rgb(241,154,125);fill-rule:nonzero;"/>
        <path d="M382.664,164.297C382.664,164.297 386.309,161.064 386.107,159.768C385.904,158.471 385.219,157.758 384.391,158.006C383.281,158.339 379.055,161.562 377.232,163.039" style="fill:none;stroke:rgb(0,9,43);stroke-width:0.78px;stroke-linejoin:round;"/>
        <path d="M372.349,158.942C372.349,158.942 382.061,157.426 382.151,155.987C382.24,154.549 381.562,152.65 379.533,153.054C377.122,153.535 370.209,155.19 367.916,155.145" style="fill:none;stroke:rgb(0,9,43);stroke-width:0.78px;stroke-linejoin:round;"/>
        <path d="M384.391,158.006C384.391,158.006 386.176,156.899 385.47,155.66C384.764,154.422 383.8,153.987 381.734,154.524" style="fill:none;stroke:rgb(0,9,43);stroke-width:0.78px;stroke-linejoin:round;"/>
        <path d="M367.721,151.089C367.721,151.089 368.252,150.398 369.003,149.692" style="fill:none;stroke:rgb(0,9,43);stroke-width:0.78px;stroke-linejoin:round;"/>
        <path d="M388.782,169.097L388.616,169.191C387.308,169.926 385.651,169.462 384.916,168.154L359.668,123.261L364.571,120.503L389.819,165.397C390.554,166.705 390.09,168.362 388.782,169.097Z" style="fill:rgb(38,60,113);fill-rule:nonzero;"/>
        <path d="M372.148,130.477L374.267,134.244C374.841,135.266 374.581,136.503 373.686,137.007L369.108,139.581C368.212,140.085 367.02,139.665 366.445,138.643L364.234,134.712" style="fill:rgb(38,60,113);fill-rule:nonzero;"/>
        <path d="M362.352,93.606C353.594,77.359 342.616,66.175 335.638,65.652L335.869,64.109L332.223,66.486C325.957,70.753 329.287,89.814 339.661,109.059C350.035,128.304 363.524,140.446 369.79,136.179L373.218,133.894L372.231,132.573C374.643,125.119 370.881,109.429 362.352,93.606Z" style="fill:rgb(38,60,113);fill-rule:nonzero;"/>
        <path d="M365.998,91.23C376.372,110.474 379.702,129.535 373.436,133.802C367.17,138.069 353.681,125.927 343.307,106.682C332.933,87.437 329.603,68.377 335.869,64.109C342.135,59.842 355.624,71.984 365.998,91.23Z" style="fill:rgb(101,125,189);fill-rule:nonzero;"/>
        <path d="M362.536,93.587C370.978,109.249 374.293,124.35 369.939,127.315C365.585,130.28 355.212,119.987 346.77,104.324C338.327,88.662 335.012,73.562 339.366,70.597C343.72,67.632 354.093,77.925 362.536,93.587Z" style="fill:rgb(196,213,238);fill-rule:nonzero;"/>
        <path d="M388.774,154.835C388.774,154.835 379.308,153.461 375.308,150.163C375.308,150.163 369.33,148.958 368.06,149.713C366.789,150.467 365.749,151.538 363,152.001C360.251,152.465 361.08,150.635 363.968,148.038C364.793,147.296 367,144.629 368.915,144.268C371.492,143.783 377.069,141.81 377.069,141.81L388.259,155.188" style="fill:rgb(241,154,125);fill-rule:nonzero;"/>
        <path d="M388.774,154.835C388.774,154.835 379.308,153.461 375.308,150.163C375.308,150.163 369.33,148.958 368.06,149.713C366.789,150.467 365.749,151.538 363,152.001" style="fill:none;stroke:rgb(0,9,43);stroke-width:0.78px;stroke-linejoin:round;"/>
        <path d="M362.536,93.587C354.093,77.925 343.72,67.632 339.366,70.597C339.022,70.831 338.732,71.149 338.482,71.529C343.515,71.834 352.318,81.391 359.663,95.016C367.438,109.441 370.859,123.382 367.95,127.811C368.702,127.857 369.373,127.701 369.939,127.315C374.293,124.35 370.978,109.249 362.536,93.587Z" style="fill:rgb(38,60,113);fill-rule:nonzero;"/>
        <path d="M356.658,87.449C361.149,95.781 362.912,103.813 360.596,105.39C358.28,106.968 352.762,101.492 348.271,93.161C343.78,84.829 342.016,76.796 344.332,75.219C346.648,73.642 352.167,79.117 356.658,87.449Z" style="fill:white;fill-rule:nonzero;"/>
        <path d="M524.593,114.265L517.628,89.413C515.072,80.29 510.59,71.849 504.669,64.452C494.18,51.35 466.628,52.542 466.628,52.542L445.431,67.795C445.366,67.831 445.301,67.866 445.236,67.902C432.755,74.789 430.462,85.413 430.79,101.788L431.563,123.899L445.913,110.195L449.535,115.161C449.519,115.018 449.505,114.885 449.493,114.756L451.208,117.456L449.535,115.161C450.043,119.723 452.421,131.342 463.481,136.769L469.782,146.684L468.111,160.387C527.246,181.891 541.973,139.666 541.973,139.666L524.593,114.265Z" style="fill:rgb(128,200,142);fill-rule:nonzero;"/>
        <path d="M442.878,107.915L450.62,117.385C450.62,117.385 449.562,131.979 464.267,136.658" style="fill:none;stroke:black;stroke-width:1px;"/>
        <path d="M501.644,127.188L456.636,166.403C456.636,166.403 465.549,178.88 469.559,179.326L523.479,145.013" style="fill:rgb(128,200,142);fill-rule:nonzero;"/>
        <path d="M470.005,154.371C470.005,154.371 494.514,126.743 502.981,122.732" style="fill:none;stroke:black;stroke-width:1px;"/>
        <path d="M490.002,97.388C490.002,97.388 491.172,103.57 499.026,125.294" style="fill:none;stroke:black;stroke-width:1px;"/>
        <path d="M475.798,175.761C475.798,175.761 526.153,143.676 526.599,134.318C527.044,124.96 513.899,81.513 513.899,81.513" style="fill:none;stroke:black;stroke-width:1px;"/>
        <path d="M481.312,130.308C481.312,130.308 493.433,131.449 497.188,120.448" style="fill:none;stroke:black;stroke-width:1px;"/>
        <path d="M432.231,122.117C432.231,122.117 435.573,118.774 438.915,122.562" style="fill:none;stroke:black;stroke-width:1px;"/>
        <path d="M392.578,144.178L399.708,140.836C399.708,140.836 408.398,150.305 405.278,158.438L396.589,161C396.589,161 400.599,152.087 392.578,144.178Z" style="fill:white;fill-rule:nonzero;"/>
        <path d="M459.477,161.39C459.477,161.39 468.835,165.4 475.519,176.931L468.334,182.445C468.334,182.445 459.477,169.745 453.294,167.74L459.477,161.39Z" style="fill:white;fill-rule:nonzero;"/>
        <path d="M451.623,51.099L481.145,53.271C481.145,53.271 482.265,69.51 464.437,83.831L456.43,76.052L452.069,85.523C452.069,85.523 445.294,81.712 444.381,70.773L445.82,57.492L451.623,51.099Z" style="fill:white;fill-rule:nonzero;"/>
        <path d="M466.628,52.542C467.705,53.46 468.216,54.874 467.966,56.267C467.018,61.552 464.152,74.344 458.406,75.951C451.14,77.985 446.607,63.633 446.607,63.633L450.23,38.566L466.628,52.542Z" style="fill:rgb(241,154,125);fill-rule:nonzero;"/>
        <path d="M443.607,58.486L443.518,62.136C443.45,62.173 442.209,72.948 445.83,73.363C460.964,70.627 461.916,56.279 463.211,42.039C463.211,42.039 442.138,55.643 443.607,58.486Z" style="fill-rule:nonzero;"/>
        <path d="M418.412,31.609C418.412,31.609 414.723,66.757 436.559,72.805C458.395,78.854 463.626,43.245 462.873,30.93C462.12,18.615 456.63,14.034 441.327,13.482C418.685,12.666 418.412,31.609 418.412,31.609Z" style="fill:rgb(241,154,125);fill-rule:nonzero;"/>
        <path d="M438.029,48.592C438.091,49.857 437.49,50.916 436.686,50.957C435.882,50.998 435.18,50.005 435.118,48.74C435.055,47.475 435.657,46.416 436.461,46.375C437.265,46.334 437.967,47.327 438.029,48.592Z" style="fill-rule:nonzero;"/>
        <path d="M440.427,42.117C440.427,42.117 433.213,45.257 432.506,39.803" style="fill:none;stroke:black;stroke-width:1px;"/>
        <path d="M423.751,42.131C423.751,42.131 421.368,46.268 418.627,44.43" style="fill:none;stroke:black;stroke-width:1px;"/>
        <path d="M419.918,49.479C419.918,49.479 421.282,49.039 423.281,50.096" style="fill:none;stroke:black;stroke-width:1px;"/>
        <path d="M441.298,62.59C441.298,62.59 443.265,60.709 444.889,60.281" style="fill:none;stroke:black;stroke-width:1px;"/>
        <path d="M426.539,53.529C426.539,53.529 425.285,56.379 428.477,57.747" style="fill:none;stroke:black;stroke-width:1px;"/>
        <path d="M418.156,39.165C418.156,39.165 418.526,28.873 423.086,23.059C423.086,23.059 429.356,37.309 456.375,40.217L464.241,38.563C464.241,38.563 467.462,22.061 456.176,15.563C444.889,9.065 427.616,12.656 422.06,18.499C412.639,28.404 418.156,39.165 418.156,39.165Z" style="fill-rule:nonzero;"/>
        <path d="M451.131,38.335L455.805,47.57L459.111,37.195L451.131,38.335Z" style="fill-rule:nonzero;"/>
        <path d="M467.468,46.61C466.122,51.522 462.257,54.769 458.837,53.863C455.417,52.957 453.736,48.24 455.082,43.328C456.428,38.416 460.293,35.169 463.713,36.075C467.133,36.982 468.814,41.698 467.468,46.61Z" style="fill:rgb(241,154,125);fill-rule:nonzero;"/>
        <path d="M464.035,42.334C464.035,42.334 460.188,39.024 458.087,45.076C458.087,45.076 460.334,47.461 458.916,49.333C458.916,49.333 461.131,49.836 462.224,47.882" style="fill:none;stroke:black;stroke-width:1px;stroke-linejoin:round;"/>
        <path d="M462.37,44.649C462.37,44.649 462.156,43.304 460.662,41.77" style="fill:none;stroke:black;stroke-width:1px;stroke-linejoin:round;"/>
        <path d="M464.241,53.698C464.241,55.539 462.748,57.032 460.907,57.032C459.065,57.032 457.572,55.539 457.572,53.698C457.572,51.856 459.065,50.363 460.907,50.363C462.748,50.363 464.241,51.856 464.241,53.698Z" style="fill:white;fill-rule:nonzero;"/>
        <path d="M454.893,19.867C454.893,19.867 458.997,-1.566 468.574,2.538C478.15,6.642 482.482,27.163 473.362,28.759C464.241,30.355 457.173,26.023 457.173,26.023L454.893,19.867Z" style="fill-rule:nonzero;"/>
        <path d="M455.007,26.023C455.007,26.023 470.854,39.247 475.984,27.049" style="fill:none;stroke:black;stroke-width:1px;"/>
        <path d="M514.893,213.117L496.55,202.764" style="fill:none;stroke:rgb(55,59,61);stroke-width:1px;"/>
        <path d="M98.519,77.164C118.341,77.705 134.741,93.581 135.881,113.376C136.552,125.016 132.041,135.608 124.45,143.081C123.328,144.185 122.807,145.759 123.069,147.311L125.92,164.182L108.379,153.961C107.379,153.379 106.202,153.166 105.069,153.394C100.78,154.259 96.237,154.418 91.554,153.709C74.225,151.084 60.706,136.738 59.107,119.284C56.977,96.022 75.558,76.538 98.519,77.164Z" style="fill:rgb(196,213,238);fill-rule:nonzero;"/>
        <path d="M95.034,135.843C95.034,135.372 95.161,134.981 95.415,134.672C95.669,134.364 96.015,134.209 96.45,134.209C96.958,134.209 97.321,134.355 97.54,134.645C97.758,134.936 97.866,135.335 97.866,135.843C97.866,136.279 97.748,136.66 97.513,136.987C97.275,137.314 96.922,137.478 96.45,137.478C95.977,137.478 95.624,137.332 95.388,137.042C95.151,136.751 95.034,136.352 95.034,135.843ZM95.687,128.98L95.579,119.775C96.922,119.448 98.147,119.022 99.255,118.495C100.363,117.969 101.334,117.361 102.169,116.67C103.004,115.981 103.703,115.21 104.267,114.355C104.829,113.503 105.255,112.585 105.547,111.605C105.837,110.625 105.983,109.59 105.983,108.501C105.983,106.939 105.601,105.469 104.838,104.088C104.076,102.709 102.987,101.592 101.571,100.739C100.155,99.886 98.466,99.459 96.505,99.459C94.398,99.459 92.447,100.041 90.649,101.202C88.851,102.364 87.48,104.343 86.537,107.139L85.557,106.485C86.391,103.835 87.79,101.801 89.751,100.385C91.712,98.969 93.944,98.261 96.45,98.261C98.593,98.261 100.472,98.715 102.088,99.623C103.703,100.531 104.965,101.756 105.873,103.299C106.781,104.842 107.236,106.576 107.236,108.501C107.236,109.953 106.991,111.315 106.5,112.585C106.01,113.857 105.32,115.019 104.43,116.071C103.54,117.125 102.46,118.042 101.189,118.822C99.917,119.604 98.483,120.193 96.886,120.592L96.777,128.98L95.687,128.98Z" style="fill-rule:nonzero;"/>
    </g>
</svg>
