<svg width="63" height="100" viewBox="0 0 63 100" fill="none" xmlns="http://www.w3.org/2000/svg">
<path d="M37.5988 39.7461H24.6383C19.4092 39.7461 14.918 44.2403 14.918 49.4665V104.554H45.9893V78.4351L47.3221 73.3255V49.4665C47.3221 44.2374 42.8279 39.7461 37.5988 39.7461Z" fill="#577CFF"/>
<path d="M25.5769 47.6836C22.0963 47.6836 18.7582 49.0663 16.297 51.5275C13.8358 53.9887 12.4531 57.3267 12.4531 60.8074C12.4531 64.288 13.8358 67.6261 16.297 70.0873C18.7582 72.5485 22.0963 73.9312 25.5769 73.9312V47.6836Z" fill="#0072DB"/>
<path d="M25.5785 50.6016C22.8713 50.6016 20.275 51.677 18.3608 53.5912C16.4465 55.5055 15.3711 58.1018 15.3711 60.809C15.3711 63.5161 16.4465 66.1124 18.3608 68.0267C20.275 69.9409 22.8713 71.0164 25.5785 71.0164V50.6016Z" fill="#577CFF"/>
<path d="M31.4109 47.6836C27.9303 47.6836 24.5922 49.0663 22.131 51.5275C19.6698 53.9887 18.2871 57.3267 18.2871 60.8074C18.2871 64.288 19.6698 67.6261 22.131 70.0873C24.5922 72.5485 27.9303 73.9312 31.4109 73.9312V47.6836Z" fill="#0072DB"/>
<path d="M31.4105 50.6016C28.7034 50.6016 26.1071 51.677 24.1928 53.5912C22.2785 55.5055 21.2031 58.1018 21.2031 60.809C21.2031 63.5161 22.2785 66.1124 24.1928 68.0267C26.1071 69.9409 28.7034 71.0164 31.4105 71.0164V50.6016Z" fill="#577CFF"/>
<path d="M7.53598 104.552H28.3999V62.9935C27.0602 62.7594 25.7032 62.6374 24.3432 62.6289C17.887 62.6289 11.6952 65.1936 7.12996 69.7589C2.56472 74.3241 0 80.5159 0 86.9721C0 93.8898 2.8989 100.119 7.53598 104.552Z" fill="#0072DB"/>
<path d="M27.8795 52.558V65.6556C26.7111 65.452 25.5278 65.3456 24.3419 65.3377C21.5004 65.3373 18.6866 65.8967 16.0614 66.9839C13.4361 68.0711 11.0507 69.6648 9.04149 71.6741C7.03225 73.6833 5.43851 76.0687 4.3513 78.694C3.26409 81.3192 2.7047 84.1329 2.70508 86.9744C2.70536 90.4141 3.52725 93.804 5.10234 96.8619C6.67744 99.9197 8.96016 102.557 11.7605 104.555H42.9543V44.2812L27.8795 52.558Z" fill="#577CFF"/>
<path d="M44.3546 46.2266L58.4991 61.141L45.9936 74.2969L45.9878 83.1803L34.4971 90.9787L26.7949 78.9077L43.258 61.9635L37.6031 56.3552L44.3546 46.2266Z" fill="#0072DB"/>
<path d="M44.3511 42.582L60.2863 59.188C60.2863 59.188 65.8187 63.6443 60.2863 68.9084C56.9645 72.0668 36.1502 86.086 36.1502 86.086L29.6699 79.6057L47.3258 62.4281L37.6025 52.7078L44.3511 42.582Z" fill="#577CFF"/>
<path d="M32.3751 79.8573C29.097 78.297 25.9882 78.5128 22.9814 80.2714C21.5436 81.1143 20.9574 82.6891 23.1592 83.2111C25.3699 83.7274 32.3751 79.8573 32.3751 79.8573Z" fill="#EEC2AD"/>
<path d="M36.7936 85.4504C37.199 90.5979 30.3017 95.407 25.0697 94.78C21.3309 94.3309 18.0762 84.2576 22.512 82.9598C26.4667 81.8049 27.5603 78.2119 32.2528 79.5535C35.98 80.6209 36.6449 83.4731 36.7936 85.4504Z" fill="#F7DECE"/>
<path d="M33.3336 87.4393L32.7153 86.1532C32.7153 86.1532 30.4668 89.4983 27.3404 90.7903C24.9694 91.7585 22.9716 91.8547 21.9246 91.6827C22.3738 92.5372 22.3825 92.683 22.9716 93.2284C26.2293 93.3421 31.435 91.5952 33.3336 87.4393ZM26.8679 87.3256C29.7552 85.3483 30.598 83.4584 30.598 83.4584L29.656 82.2656C29.656 82.2656 26.3168 87.4452 20.3906 87.1798C20.4344 87.903 20.376 88.043 20.5889 88.7838C21.3851 88.81 24.5232 88.9296 26.8679 87.3256Z" fill="#E0AA94"/>
<path d="M18.5012 13.5865C18.9025 14.5413 19.1118 15.5657 19.1171 16.6014C19.1223 17.637 18.9235 18.6636 18.5318 19.6224C18.1402 20.5811 17.5635 21.4533 16.8346 22.1891C16.1058 22.9249 15.2391 23.5099 14.284 23.9106C13.326 24.3053 12.2997 24.5073 11.2635 24.5052C10.2274 24.503 9.20189 24.2967 8.24554 23.898C7.2892 23.4994 6.42079 22.9161 5.68995 22.1817C4.95912 21.4472 4.38018 20.5759 3.98623 19.6176C3.58504 18.6625 3.37605 17.6377 3.37118 16.6018C3.36632 15.5659 3.56568 14.5392 3.95788 13.5803C4.35007 12.6215 4.92741 11.7494 5.65688 11.0138C6.38635 10.2783 7.25364 9.69372 8.20918 9.29357C9.16675 8.89897 10.1927 8.69701 11.2284 8.69924C12.2641 8.70146 13.2892 8.90783 14.2451 9.30654C15.201 9.70525 16.0689 10.2885 16.7992 11.0229C17.5294 11.7573 18.1078 12.6284 18.5012 13.5865Z" fill="#292F33"/>
<path d="M34.2794 33.975C37.7878 29.79 39.8818 24.4413 38.0824 20.1192L35.1077 12.9536C19.0266 19.008 12.4093 10.6992 12.4093 10.6992C12.4093 10.6992 15.559 18.276 8.79883 22.1344L12.3947 30.7903C15.3345 37.8597 19.3416 42.9225 26.4022 40.0207L26.6414 40.9715C27.2421 43.3542 26.8018 45.2819 30.3102 45.416C32.7629 45.5094 36.0759 41.1289 35.4751 38.7462L34.2794 33.975Z" fill="#F7DECE"/>
<path d="M53.0224 15.346C55.4255 8.92405 49.6423 4.042 44.7194 3.54038C41.733 3.23707 39.0383 5.14148 37.7259 7.42211C31.7444 -2.59281 22.7969 -0.233446 17.104 1.77012C11.0729 3.89326 2.10208 10.1373 5.62217 16.8479C9.14227 23.5615 20.8983 20.6742 20.8983 20.6742L25.1533 27.5336C24.0042 21.6308 27.9239 20.3126 29.735 21.5987C31.6423 22.9549 30.3766 27.3032 31.2457 29.0181C32.1148 30.7329 35.1245 33.0835 35.1245 33.0835C36.9735 30.7329 42.8092 22.6486 40.0824 12.8583C41.211 12.4354 42.9054 12.7212 44.2732 13.4357C47.7496 15.241 45.0111 24.2352 49.8465 27.0786C54.4806 29.8055 57.1987 26.055 57.1987 26.055C52.4508 26.2125 50.7272 21.485 53.0224 15.346Z" fill="#292F33"/>
<path d="M14.9096 33.925L14.0113 34.2983C13.9172 34.3403 13.8156 34.363 13.7126 34.3651C13.6096 34.3672 13.5071 34.3487 13.4114 34.3107C13.3156 34.2726 13.2284 34.2158 13.1549 34.1436C13.0814 34.0713 13.0231 33.9851 12.9834 33.89C12.9437 33.7949 12.9235 33.6928 12.9238 33.5897C12.9242 33.4867 12.9452 33.3847 12.9855 33.2899C13.0258 33.1951 13.0848 33.1093 13.1587 33.0375C13.2327 32.9658 13.3203 32.9096 13.4164 32.8722L14.3176 32.4989C14.4121 32.4546 14.5146 32.4299 14.619 32.4262C14.7234 32.4226 14.8274 32.4402 14.9248 32.4779C15.0221 32.5156 15.1109 32.5727 15.1856 32.6456C15.2603 32.7185 15.3195 32.8059 15.3595 32.9023C15.3995 32.9988 15.4196 33.1023 15.4185 33.2067C15.4174 33.3111 15.3952 33.4143 15.3531 33.5098C15.3111 33.6054 15.2501 33.6915 15.1739 33.7629C15.0976 33.8342 15.0077 33.8894 14.9096 33.925Z" fill="#BF6952"/>
<path d="M15.3515 27.8835C14.9733 28.0401 14.5483 28.0402 14.17 27.8838C13.7916 27.7274 13.4907 27.4273 13.3334 27.0494L12.7355 25.6174C12.5781 25.2384 12.5777 24.8124 12.7344 24.4331C12.8911 24.0538 13.1921 23.7523 13.5711 23.5949C13.9501 23.4375 14.3761 23.4371 14.7554 23.5938C15.1347 23.7505 15.4362 24.0514 15.5936 24.4305L16.1885 25.8595C16.2669 26.0473 16.3074 26.2487 16.3077 26.4522C16.308 26.6557 16.2682 26.8573 16.1904 27.0453C16.1126 27.2334 15.9985 27.4042 15.8545 27.548C15.7106 27.6919 15.5397 27.8059 15.3515 27.8835Z" fill="#662113"/>
<path d="M16.1328 37.4269C16.8415 38.2872 17.6173 39.0046 18.4543 39.5646C21.5311 37.7885 21.7469 35.0938 21.7469 35.0938L16.2786 37.3656L16.1328 37.4269Z" fill="#DF1F32"/>
</svg>
