<svg width="72" height="84" viewBox="0 0 72 84" fill="none" xmlns="http://www.w3.org/2000/svg">
<path d="M45.2667 34.3912C43.9016 34.3912 42.8142 34.1281 41.9403 33.7227C40.6328 33.1173 39.7858 32.1843 39.2528 31.2527C38.9871 30.7896 38.8032 30.3291 38.6876 29.9237C38.5721 29.5196 38.5265 29.1638 38.5278 28.9517C38.5278 28.5463 38.2003 28.2188 37.7962 28.2188C37.3922 28.2188 37.0645 28.5463 37.0645 28.9517C37.0645 29.2149 37.0968 29.5049 37.1612 29.8243C37.2738 30.384 37.4832 31.0284 37.8284 31.6955C38.3425 32.6904 39.1614 33.736 40.3857 34.5281C40.6931 34.7308 41.0218 34.912 41.3791 35.0732C41.4354 35.316 41.5145 35.7417 41.5134 36.2585C41.5134 36.6329 41.4718 37.0492 41.359 37.4774C41.2461 37.9056 41.0623 38.3406 40.7669 38.766C40.5401 39.1002 40.6207 39.5539 40.9534 39.7836C41.2851 40.0132 41.7402 39.9314 41.9697 39.5985C42.3697 39.0224 42.6234 38.4225 42.7739 37.852C42.9229 37.2799 42.9751 36.735 42.9751 36.2585C42.9751 36.0209 42.9618 35.7966 42.943 35.5954C43.6464 35.7578 44.417 35.8544 45.2666 35.8544C45.6707 35.8544 45.9984 35.527 45.9984 35.1228C45.9985 34.7189 45.671 34.3912 45.2667 34.3912Z" fill="#BCCBE1"/>
<path d="M48.5097 24.9748C48.158 24.7788 47.7136 24.8996 47.5137 25.2528C47.3151 25.6032 47.4399 26.0488 47.7916 26.2488C48.3311 26.5575 48.6588 26.8985 48.879 27.2516C47.9768 27.5682 47.1794 27.6999 46.472 27.6999C45.4396 27.6986 44.5954 27.4261 43.8811 27.0073C43.1708 26.5898 42.5977 26.0167 42.1615 25.4246C41.4434 24.4446 40.5104 23.5735 39.4096 22.9372C38.3089 22.3036 37.0376 21.9062 35.6711 21.9062C34.475 21.9062 33.2145 22.215 31.9634 22.9009C31.4533 23.1803 31.0091 23.5077 30.6238 23.8662C29.1028 24.4515 27.7939 24.6636 26.6838 24.6636C25.1039 24.6609 23.9252 24.2393 23.1359 23.8232C22.7426 23.6138 22.4486 23.407 22.2581 23.2567C22.1628 23.1803 22.0916 23.1213 22.0486 23.0809L22.0056 23.0393L21.9975 23.0313C21.7169 22.7441 21.2564 22.7359 20.9651 23.015C20.6753 23.2955 20.6671 23.7574 20.9463 24.0487C20.9892 24.0905 21.4901 24.6031 22.4525 25.1147C22.8738 25.3375 23.3894 25.5563 23.9855 25.7349C23.8272 25.9576 23.6108 26.2852 23.3749 26.6985C22.9225 27.4974 22.4029 28.6195 22.1398 29.9393C22.0579 30.3378 22.3157 30.7218 22.7116 30.801C23.1077 30.8816 23.4915 30.6224 23.5707 30.2264C23.7923 29.1137 24.2486 28.1229 24.6473 27.4208C24.8474 27.0664 25.0311 26.7886 25.1642 26.598C25.2312 26.5053 25.2836 26.4315 25.3198 26.3858C25.3373 26.363 25.3509 26.347 25.3587 26.3362L25.3695 26.3255L25.3708 26.3229C25.4367 26.2409 25.4809 26.1482 25.5064 26.049C25.8781 26.0973 26.2688 26.1242 26.6837 26.1242C27.4515 26.1242 28.2946 26.033 29.202 25.8276C28.7496 26.7955 28.5657 27.8076 28.5642 28.7339C28.567 29.6655 28.7442 30.5139 29.0624 31.1879C29.2354 31.5517 29.6718 31.7088 30.0356 31.5355C30.3994 31.3622 30.5565 30.9275 30.3832 30.5622C30.1805 30.1405 30.0247 29.4721 30.0274 28.7338C30.0261 27.9364 30.2006 27.0612 30.6128 26.2597C31.0275 25.4597 31.6692 24.7307 32.6667 24.183C33.7178 23.6056 34.7246 23.3695 35.671 23.3667C36.7516 23.3695 37.769 23.6807 38.6792 24.2044C39.5867 24.7266 40.3787 25.4649 40.9827 26.2878C41.5142 27.014 42.2258 27.7281 43.14 28.2678C44.0528 28.8075 45.1749 29.1633 46.4718 29.1605C47.3296 29.1605 48.2611 29.0076 49.2653 28.6667L49.2666 28.7178C49.2666 29.0762 49.2103 29.4022 49.1551 29.6333C49.1284 29.7461 49.1001 29.8386 49.08 29.8964C49.0706 29.9259 49.0639 29.9475 49.0585 29.9608L49.0546 29.9716V29.9729C48.9071 30.3473 49.0867 30.7703 49.4613 30.9206C49.8371 31.0696 50.2627 30.8872 50.413 30.5139C50.4331 30.4615 50.7244 29.7299 50.7285 28.7179C50.7285 28.1379 50.6278 27.4561 50.2882 26.7836C49.9528 26.1078 49.3741 25.4622 48.5097 24.9748Z" fill="#BCCBE1"/>
<path d="M29.7407 19.5134C30.2444 18.92 30.9598 18.453 31.7745 18.1401C32.5894 17.8232 33.4969 17.6662 34.348 17.6662C35.1749 17.6662 35.9468 17.8178 36.5107 18.0823C36.8798 18.2514 37.3133 18.0905 37.481 17.7253C37.6503 17.3587 37.4905 16.9225 37.1253 16.7562C36.3091 16.3776 35.3479 16.2085 34.3478 16.207C33.3197 16.207 32.2484 16.391 31.2482 16.775C30.2522 17.1588 29.3259 17.7455 28.6279 18.5711C28.3648 18.8784 28.4037 19.3389 28.7111 19.5992C29.0199 19.8623 29.4831 19.8222 29.7407 19.5134Z" fill="#BCCBE1"/>
<path d="M41.0388 0.074582C23.0185 -1.03434 7.84414 10.3023 8.18766 28.7723L8.17428 30.4438L0.345389 44.2692C-0.0761496 45.0142 -0.113848 45.9176 0.24339 46.6963C0.600466 47.4749 1.30923 48.0346 2.14953 48.2011L6.98768 49.5354L8.50721 64.1944C8.54751 65.6079 9.17582 66.9397 10.2417 67.8673C11.3075 68.7963 12.7144 69.2353 14.1186 69.0781L17.9819 69.3856C18.7362 69.3023 19.4909 69.5426 20.0559 70.0501C20.621 70.5549 20.9446 71.2783 20.9446 72.0369V83.557H53.6333C53.6333 83.557 53.6333 77.9714 53.6333 75.7429C53.6333 73.5131 54.4038 68.4175 55.8616 66.0842C61.1615 57.611 69.7877 53.1032 71.243 35.7273C72.6993 18.3486 62.328 1.3862 41.0388 0.074582ZM62.7871 29.8731C62.0541 31.084 60.8689 31.8383 59.5747 32.0612C59.1775 32.1311 58.9089 32.5069 58.9761 32.9056C59.0472 33.3028 59.4244 33.5728 59.8218 33.5016C60.1185 33.4505 60.4111 33.3768 60.6998 33.2841C61.0112 33.9297 61.1669 34.6237 61.1669 35.3151C61.1669 36.0534 60.9911 36.7863 60.6541 37.4493C60.3184 38.1113 59.8218 38.7006 59.1693 39.1597C58.3491 39.7354 57.4161 40.0093 56.4899 40.0107C56.4162 40.0107 56.3436 40.0027 56.2711 40.0013C56.2549 39.879 56.2401 39.7583 56.2187 39.6388V39.6373C56.0591 38.7903 55.7275 38.0145 55.2751 37.3405L55.2199 37.2587L55.1449 37.1943C54.5918 36.719 53.8574 35.9404 53.291 35.1471C53.005 34.7512 52.7622 34.3497 52.5983 33.9927C52.4332 33.6343 52.3567 33.3227 52.3594 33.1388C52.3594 33.0569 52.3715 33.0004 52.3877 32.9629C52.401 32.9267 52.4144 32.9051 52.4427 32.8756C52.7273 32.5923 52.7273 32.1278 52.4427 31.8406C52.1567 31.5573 51.695 31.5573 51.4104 31.8406C51.2304 32.0178 51.0961 32.2324 51.0144 32.4594C50.9298 32.6824 50.8988 32.9144 50.8988 33.1387C50.9014 33.6447 51.0545 34.1253 51.2693 34.6006C51.5955 35.3108 52.0813 36.0155 52.609 36.6598C53.1044 37.264 53.6293 37.8076 54.1019 38.2237C54.4281 38.7218 54.6656 39.2856 54.7824 39.9071C54.8307 40.169 54.8562 40.4293 54.8616 40.6777V40.6831C54.8616 40.7152 54.8629 40.7476 54.8629 40.7823C54.8629 41.8859 54.4696 42.9316 53.7943 43.7545C53.1178 44.576 52.166 45.1733 51.037 45.3855C50.743 45.4418 50.4503 45.4687 50.163 45.4687C48.6126 45.47 47.1787 44.6901 46.3171 43.4524C46.7815 42.9812 47.1776 42.4295 47.4782 41.8025V41.8038C47.8527 41.0292 48.05 40.2077 48.085 39.3943C48.1024 38.9916 47.791 38.6506 47.3883 38.6332C46.9829 38.6144 46.6431 38.9284 46.6244 39.3312C46.5989 39.9513 46.4486 40.5728 46.1627 41.1662L46.1614 41.1689C45.8539 41.8038 45.427 42.3355 44.9168 42.7557L44.9142 42.757C44.0739 43.4429 43.0146 43.8215 41.9315 43.8215C41.2496 43.8215 40.5568 43.6725 39.899 43.3543C38.6815 42.7691 37.8359 41.7261 37.4613 40.5326H37.46C37.3177 40.0802 37.2439 39.6037 37.2439 39.1259C37.2439 38.4426 37.3929 37.7498 37.711 37.0908C37.8869 36.727 37.7326 36.2895 37.3688 36.1162C37.0063 35.9404 36.5701 36.092 36.3942 36.456C35.9808 37.315 35.7807 38.2293 35.7807 39.126C35.7807 39.561 35.8318 39.9905 35.9204 40.4106C35.3499 40.7221 34.7069 40.922 34.0115 40.9716H34.0102C33.8961 40.9798 33.7847 40.985 33.6719 40.985C32.5737 40.985 31.5577 40.6038 30.7521 39.958C30.0474 39.3943 29.5079 38.6358 29.2205 37.7524C29.7333 37.2465 30.1602 36.6518 30.4729 35.9926C30.6447 35.6274 30.4889 35.1925 30.124 35.0206C29.7602 34.8475 29.3212 35.0032 29.1507 35.3696C28.862 35.9819 28.4404 36.5255 27.9264 36.9591C27.1934 37.5779 26.2697 37.9753 25.2416 38.0493H25.2403C25.1262 38.0573 25.0148 38.0626 24.9035 38.0626C22.5838 38.0626 20.6024 36.3484 20.2667 34.0557L20.2654 34.049V34.0451C20.2466 33.9349 20.2346 33.8208 20.2266 33.7027C20.2186 33.5912 20.2145 33.4758 20.2145 33.3631C20.2145 33.069 20.2427 32.7778 20.2951 32.4971C20.3663 32.0997 20.1046 31.7185 19.7073 31.6447C19.3127 31.5736 18.9301 31.8328 18.8549 32.23C18.789 32.5977 18.7529 32.9763 18.7529 33.3629L18.7542 33.4071C18.0965 33.3333 17.4587 33.1225 16.8882 32.7883C16.1659 32.3669 15.5524 31.7494 15.1283 30.9572C14.7511 30.2497 14.5724 29.4967 14.5724 28.7503C14.5724 27.7864 14.8719 26.8402 15.4237 26.0494C15.6371 26.35 15.8774 26.6333 16.1471 26.899C16.7647 27.5044 17.4788 27.9527 18.2346 28.2453C18.6117 28.3932 19.0334 28.205 19.1796 27.8266C19.3273 27.4507 19.138 27.0279 18.7635 26.8815C18.185 26.6586 17.6425 26.3178 17.1726 25.856V25.8547C16.7565 25.4493 16.4343 24.9874 16.2047 24.4921C15.9095 23.8638 15.7618 23.1807 15.7618 22.5028C15.7629 21.3134 16.206 20.1348 17.1 19.222C17.8612 18.446 18.8196 17.9922 19.8143 17.8541H19.8156H19.8182C20.0304 17.8272 20.2424 17.8125 20.4545 17.8125C21.6413 17.8138 22.8212 18.2609 23.7368 19.1536C24.0255 19.4342 24.4871 19.4314 24.7705 19.1416C25.0525 18.8543 25.0471 18.3925 24.7597 18.1092C23.5945 16.9681 22.0857 16.3842 20.5753 16.3574C20.7457 15.658 21.0734 15.0071 21.5325 14.4593C22.1701 13.6996 23.0414 13.1384 24.0831 12.8981C24.4375 12.819 24.7864 12.7787 25.1341 12.7787C25.7462 12.7787 26.3422 12.902 26.8927 13.125C26.737 13.67 26.651 14.2419 26.651 14.8353C26.651 15.2379 26.9774 15.5641 27.3813 15.5641C27.7852 15.5641 28.1114 15.2379 28.1114 14.8353C28.1114 14.1962 28.2418 13.5855 28.47 13.0311C28.823 12.1827 29.4204 11.4605 30.1708 10.9504C30.9238 10.4402 31.8247 10.1437 32.8032 10.1437C34.2127 10.1437 35.4706 10.7598 36.3323 11.7437C37.0585 12.5693 37.4949 13.6485 37.4949 14.8353C37.4949 15.2379 37.8239 15.5641 38.2265 15.5641C38.6306 15.5641 38.9595 15.2379 38.9595 14.8353C38.9595 13.4847 38.5219 12.2323 37.7822 11.2188C38.1608 10.6953 38.6427 10.2496 39.201 9.91945C39.899 9.50869 40.7112 9.27107 41.5825 9.27107C42.5865 9.27107 43.5088 9.58392 44.2699 10.1181C45.0338 10.6524 45.6298 11.4096 45.9668 12.2887H45.9655C46.1643 12.811 46.273 13.3721 46.273 13.9641C46.273 14.3669 46.6018 14.6943 47.0046 14.6943C47.4074 14.6943 47.7375 14.3669 47.7375 13.9641C47.7375 13.36 47.6448 12.7788 47.4824 12.2271C48.3497 11.4217 49.4974 10.9652 50.6827 10.9652C51.3016 10.9652 51.9299 11.0875 52.5365 11.3464C53.3822 11.713 54.0616 12.2915 54.5461 12.9977C55.0308 13.7051 55.3153 14.5347 55.365 15.3937C55.3704 15.4824 55.3745 15.5697 55.3745 15.6581C55.3717 16.2784 55.2495 16.904 54.9892 17.512C54.8296 17.8827 55.0013 18.3122 55.3717 18.4705C55.7435 18.6303 56.1717 18.4597 56.3328 18.0893C56.604 17.4583 56.7597 16.8072 56.8121 16.1536C57.5289 16.2045 58.2269 16.422 58.8446 16.7871C59.5492 17.2033 60.1519 17.8126 60.5629 18.5939C60.9225 19.2772 61.0916 20.0034 61.0931 20.7229C61.0931 21.0518 61.0528 21.378 60.9818 21.6976C60.5441 21.5257 60.0878 21.4103 59.6326 21.3431C59.2352 21.2881 58.8633 21.5673 58.8098 21.9673C58.752 22.3675 59.0313 22.7365 59.4286 22.7916C59.889 22.8572 60.3414 22.9889 60.7737 23.1929C60.8489 23.3179 60.9643 23.4212 61.1092 23.4844C61.1979 23.5232 61.2932 23.5422 61.3859 23.5422C61.6556 23.722 61.9012 23.9247 62.1202 24.1462L62.1216 24.1475C62.9994 25.032 63.4705 26.2255 63.4705 27.4457C63.4704 28.2742 63.2515 29.1119 62.7871 29.8731Z" fill="#F7DECE"/>
<path d="M55.1928 23.4115C54.8303 23.0986 54.4411 22.8422 54.0289 22.6624C53.6153 22.4798 53.1804 22.3711 52.7362 22.3711C52.3321 22.3711 52.0059 22.6986 52.0059 23.1027C52.0059 23.5068 52.3321 23.833 52.7362 23.833C53.0046 23.833 53.3429 23.9257 53.7026 24.1325C54.2382 24.4398 54.7954 24.9929 55.1982 25.6829C55.6063 26.3742 55.8666 27.1944 55.864 28.0442C55.8612 28.9772 55.5673 29.9518 54.7699 30.9195C54.5149 31.2296 54.5578 31.6914 54.8692 31.9478C55.1807 32.207 55.6424 32.1613 55.8989 31.8525C56.9016 30.6403 57.3298 29.298 57.3285 28.0442C57.3285 27.2817 57.1728 26.5514 56.9178 25.8855C56.5312 24.8881 55.9164 24.0368 55.1928 23.4115Z" fill="#C0CDE2"/>
<path d="M50.1372 20.0971C48.1276 20.0971 46.5154 19.3562 45.3985 18.3883C44.84 17.9049 44.4131 17.3654 44.1326 16.8472C43.8479 16.3304 43.719 15.8377 43.7218 15.4685C43.7218 15.0659 43.3943 14.7384 42.9915 14.7384C42.5874 14.7384 42.2599 15.0659 42.2599 15.4685C42.2625 16.1546 42.4774 16.8606 42.8479 17.5454C43.2386 18.2595 43.8078 18.9535 44.5286 19.5628C44.3836 19.7642 44.1836 20.0273 43.9258 20.3052C43.3699 20.9133 42.5673 21.5858 41.6074 21.9282C41.2303 22.0624 41.0302 22.4798 41.1658 22.8611C41.3012 23.2423 41.7176 23.4383 42.1001 23.304C43.4009 22.8369 44.3728 21.9845 45.0345 21.2581C45.3286 20.936 45.5568 20.6394 45.7273 20.4031C46.9355 21.0998 48.4295 21.5604 50.1371 21.5604C50.5411 21.5604 50.8672 21.2328 50.8672 20.8301C50.8674 20.4262 50.5411 20.0971 50.1372 20.0971Z" fill="#BCCBE1"/>
</svg>
