<svg width="77" height="87" viewBox="0 0 77 87" fill="none" xmlns="http://www.w3.org/2000/svg">
<path d="M65.9115 46.7891H10.8008C4.86184 46.7891 0 51.4665 0 57.1915C0 62.9091 4.86184 67.5939 10.8008 67.5939H65.9115C71.8505 67.5939 76.7123 62.9165 76.7123 57.1915C76.7197 51.4665 71.8578 46.7891 65.9115 46.7891Z" fill="#EDC391"/>
<path d="M67.6909 20.342C60.601 9.55599 51.4601 5.86719 38.1804 5.86719C24.9008 5.86719 15.7599 9.54861 8.67005 20.342C3.47622 28.2508 2.22203 40.6821 3.82297 53.4896C5.36488 65.8028 6.64121 72.5607 14.2844 79.4588C20.9242 85.4494 29.9397 86.7404 37.6714 86.7404H38.6895C46.4212 86.7404 55.444 85.4494 62.0765 79.4588C69.7197 72.5607 70.996 65.8028 72.5379 53.4896C74.1389 40.6821 72.8847 28.2435 67.6909 20.342Z" fill="#F7DECE"/>
<path d="M49.1704 21.5205C49.2737 21.4098 49.377 21.3065 49.4803 21.1958C49.5541 21.1147 49.6278 21.0262 49.7016 20.945C49.8713 20.7458 50.0336 20.5466 50.1885 20.34L50.2549 20.2515C50.4025 20.0523 50.5353 19.8457 50.6681 19.6318C50.705 19.5728 50.7419 19.5064 50.7787 19.4474C50.9042 19.2334 51.0296 19.0195 51.1476 18.7908C51.1698 18.7539 51.1845 18.7244 51.1993 18.6875C51.4796 18.1341 51.7231 17.5366 51.9223 16.9095L51.9444 16.8431C52.3502 15.5372 52.5863 14.0838 52.5863 12.446C52.5863 9.17036 51.4058 6.58082 49.6057 4.62576C49.5836 4.60362 49.5688 4.58887 49.5541 4.56673C49.4139 4.41918 49.2663 4.27163 49.1188 4.12408L49.0303 4.03555C48.8585 3.87225 48.6814 3.71477 48.4991 3.56338C48.3515 3.43796 48.204 3.31992 48.0564 3.20188C48.0195 3.17237 47.9826 3.15024 47.9531 3.12072L47.4662 2.7666C47.4367 2.75185 47.4146 2.72971 47.385 2.71496C46.7948 2.31657 46.1825 1.96244 45.548 1.65996C45.5259 1.6452 45.4964 1.63783 45.4742 1.62307C45.2898 1.53454 45.1054 1.45339 44.9209 1.37223L44.7512 1.29846C44.5889 1.23206 44.4266 1.16566 44.2643 1.10664C44.2053 1.08451 44.1389 1.06237 44.0799 1.04024C43.925 0.981221 43.77 0.929578 43.6225 0.877935L43.4233 0.811536C43.2683 0.759893 43.1208 0.715627 42.9659 0.671362C42.8995 0.649229 42.8331 0.634474 42.7593 0.612341C42.6044 0.568075 42.4494 0.531187 42.2945 0.494299L42.1027 0.450034C41.933 0.413146 41.7633 0.376258 41.601 0.33937C41.5494 0.331992 41.4977 0.317237 41.4461 0.309859C41.0108 0.21395 40.5755 0.147552 40.1402 0.0959089C40.0812 0.0885313 40.0222 0.0885313 39.9632 0.0811537C39.8082 0.0663985 39.6607 0.0516432 39.5058 0.0442656C39.4172 0.036888 39.3361 0.036888 39.2476 0.0295104C39.1221 0.0221328 39.0041 0.0147552 38.8861 0.0147552C38.7901 0.0147552 38.6942 0.00737742 38.5909 0.00737742C38.5245 0.00737742 38.4582 0 38.3991 0H38.3254C38.0081 0 37.6909 0.0147553 37.381 0.0368881C37.322 0.0442657 37.263 0.0442657 37.204 0.0516433C36.8867 0.0811537 36.5769 0.110664 36.2818 0.162307C32.6594 0.752515 29.7304 2.65594 27.9008 4.51509C26.8015 5.62911 26.1007 6.72837 25.8867 7.51777H25.8941C28.2402 6.92019 31.2724 6.39638 34.6513 6.21932C39.2254 5.90208 43.047 8.50637 42.8626 12.505C42.8404 12.9846 42.7814 13.4346 42.7003 13.8551L42.6781 13.9806C42.6412 14.1429 42.597 14.3052 42.5527 14.4601C42.5306 14.5339 42.5085 14.6076 42.4937 14.674C42.4494 14.8068 42.4052 14.9396 42.3535 15.0724C42.324 15.1536 42.2871 15.2347 42.2502 15.3159C42.1986 15.4339 42.1469 15.5446 42.0953 15.6479C42.051 15.7364 42.0068 15.8176 41.9551 15.8987C41.9035 15.9946 41.8445 16.0905 41.7854 16.1791C41.7264 16.2676 41.66 16.3561 41.601 16.4447C41.5494 16.5184 41.4977 16.5922 41.4387 16.666C41.3428 16.784 41.2395 16.8947 41.1362 16.998C41.1067 17.0275 41.0772 17.0644 41.0477 17.0939C40.9075 17.2341 40.76 17.3595 40.605 17.4849C40.5755 17.507 40.5386 17.5292 40.5091 17.5513C40.3835 17.6489 40.253 17.74 40.1181 17.8243C40.0738 17.8464 40.037 17.8759 39.9927 17.8981C39.8599 17.9792 39.7271 18.053 39.5943 18.1194C39.55 18.1415 39.5131 18.1637 39.4689 18.1784C39.3287 18.2448 39.1812 18.3112 39.0262 18.3702C38.9967 18.385 38.9598 18.3997 38.9229 18.4071C38.7533 18.4735 38.5836 18.5325 38.4065 18.5842C38.3918 18.5916 38.377 18.5916 38.3622 18.5989C37.5655 18.835 36.7097 18.9383 35.8391 18.9383C33.2127 18.9383 30.4903 17.9645 28.9263 16.5701C28.797 16.4525 28.6289 16.3868 28.4541 16.3857C28.4172 16.3857 28.3803 16.4004 28.3508 16.4078C28.3213 16.4152 28.2844 16.4152 28.2549 16.4299C28.2107 16.4447 28.1664 16.4594 28.1221 16.4816C28.0484 16.5184 27.9893 16.5627 27.9303 16.6144C27.9156 16.6291 27.9082 16.6439 27.8934 16.6586C27.8418 16.7176 27.7975 16.7914 27.7606 16.8652C27.7533 16.88 27.7533 16.8873 27.7459 16.9021C27.709 16.998 27.6869 17.1087 27.7016 17.2267C27.9229 19.4547 29.3247 22.2435 32.6594 24.3387C35.8317 26.338 42.5085 26.3602 47.2596 23.1066L47.3924 23.0181C47.5326 22.9148 47.6802 22.8115 47.8203 22.7083C47.8793 22.664 47.9457 22.6123 48.0048 22.5607C48.2113 22.3984 48.4105 22.2287 48.6023 22.0516L48.8901 21.7861C48.9934 21.7049 49.0819 21.609 49.1704 21.5205Z" fill="#312D2D"/>
<path d="M49.1704 21.5205C49.2737 21.4098 49.377 21.3065 49.4803 21.1958C49.5541 21.1147 49.6278 21.0262 49.7016 20.945C49.8713 20.7458 50.0336 20.5466 50.1885 20.34L50.2549 20.2515C50.4025 20.0523 50.5353 19.8457 50.6681 19.6318C50.705 19.5728 50.7419 19.5064 50.7787 19.4474C50.9042 19.2334 51.0296 19.0195 51.1476 18.7908C51.1698 18.7539 51.1845 18.7244 51.1993 18.6875C51.4796 18.1341 51.7231 17.5366 51.9223 16.9095L51.9444 16.8431C52.3502 15.5372 52.5863 14.0838 52.5863 12.446C52.5863 9.17036 51.4058 6.58082 49.6057 4.62575C49.5836 4.60362 49.5688 4.58887 49.5541 4.56673C49.4139 4.41918 49.2663 4.27163 49.1188 4.12408L49.0303 4.03555C48.8585 3.87225 48.6814 3.71477 48.4991 3.56338C48.3515 3.43796 48.204 3.31992 48.0564 3.20188C48.0195 3.17237 47.9826 3.15024 47.9531 3.12072L47.4662 2.7666C47.4367 2.75185 47.4146 2.72971 47.385 2.71496C46.7948 2.31657 46.1825 1.96244 45.548 1.65996C45.5259 1.64521 45.4964 1.63783 45.4742 1.62307C45.2898 1.53454 45.1054 1.45339 44.9209 1.37223L44.7512 1.29846C44.5889 1.23206 44.4266 1.16566 44.2643 1.10664C44.2053 1.08451 44.1389 1.06237 44.0799 1.04024C43.925 0.981221 43.77 0.929578 43.6225 0.877935L43.4233 0.811536C43.2683 0.759893 43.1208 0.715627 42.9659 0.671362C42.8995 0.649229 42.8331 0.634474 42.7593 0.612341C42.6044 0.568075 42.4494 0.531187 42.2945 0.494299L42.1027 0.450034C41.933 0.413146 41.7633 0.376258 41.601 0.33937C41.5494 0.331992 41.4977 0.317237 41.4461 0.309859C41.0108 0.21395 40.5755 0.147552 40.1402 0.0959089C40.0812 0.0885313 40.0222 0.0885313 39.9632 0.0811537C39.8083 0.0663985 39.6607 0.0516432 39.5058 0.0442656C39.4172 0.036888 39.3361 0.036888 39.2476 0.0295104C39.1221 0.0221328 39.0041 0.0147552 38.8861 0.0147552C38.7901 0.0147552 38.6942 0.00737742 38.5909 0.00737742C38.5245 0.00737742 38.4582 0 38.3991 0H38.3254C38.0081 0 37.6909 0.0147553 37.381 0.0368881C37.322 0.0442657 37.263 0.0442657 37.204 0.0516433C36.8867 0.0811537 36.5769 0.110664 36.2818 0.162307C32.6594 0.752515 29.7304 2.65594 27.9008 4.51509C26.8015 5.62911 26.1007 6.72837 25.8867 7.51777H25.8941C28.2402 6.92019 31.2724 6.39638 34.6513 6.21932C39.2254 5.90208 43.047 8.50637 42.8626 12.505C42.8404 12.9846 42.7814 13.4346 42.7003 13.8551L42.6781 13.9806C42.6412 14.1429 42.597 14.3052 42.5527 14.4601C42.5306 14.5339 42.5085 14.6076 42.4937 14.674C42.4494 14.8068 42.4052 14.9396 42.3535 15.0724C42.324 15.1536 42.2871 15.2347 42.2502 15.3159C42.1986 15.4339 42.1469 15.5446 42.0953 15.6479C42.051 15.7364 42.0068 15.8176 41.9551 15.8987C41.9035 15.9946 41.8445 16.0905 41.7854 16.1791C41.7264 16.2676 41.66 16.3561 41.601 16.4447C41.5494 16.5184 41.4977 16.5922 41.4387 16.666C41.3428 16.784 41.2395 16.8947 41.1362 16.998C41.1067 17.0275 41.0772 17.0644 41.0477 17.0939C40.9075 17.2341 40.76 17.3595 40.605 17.4849C40.5755 17.507 40.5386 17.5292 40.5091 17.5513C40.3835 17.6489 40.253 17.74 40.1181 17.8243C40.0738 17.8464 40.037 17.8759 39.9927 17.8981C39.8599 17.9792 39.7271 18.053 39.5943 18.1194C39.55 18.1415 39.5131 18.1637 39.4689 18.1784C39.3287 18.2448 39.1812 18.3112 39.0262 18.3702C38.9967 18.385 38.9598 18.3997 38.9229 18.4071C38.7533 18.4735 38.5836 18.5325 38.4065 18.5842C38.3918 18.5916 38.377 18.5916 38.3622 18.5989C37.5655 18.835 36.7097 18.9383 35.8391 18.9383C33.2127 18.9383 30.4903 17.9645 28.9263 16.5701C28.797 16.4525 28.6289 16.3868 28.4541 16.3857C28.4172 16.3857 28.3803 16.4004 28.3508 16.4078C28.3213 16.4152 28.2844 16.4152 28.2549 16.4299C28.2107 16.4447 28.1664 16.4594 28.1221 16.4816C28.0484 16.5184 27.9893 16.5627 27.9303 16.6144C27.9156 16.6291 27.9082 16.6439 27.8934 16.6586C27.8418 16.7176 27.7975 16.7914 27.7606 16.8652C27.7533 16.88 27.7533 16.8873 27.7459 16.9021C27.709 16.998 27.6869 17.1087 27.7016 17.2267C27.9229 19.4547 29.3247 22.2435 32.6594 24.3387C35.8317 26.338 42.5085 26.3602 47.2596 23.1066L47.3924 23.0181C47.5326 22.9148 47.6802 22.8115 47.8203 22.7083C47.8793 22.664 47.9457 22.6123 48.0048 22.5607C48.2113 22.3984 48.4105 22.2287 48.6024 22.0516L48.8901 21.7861C48.9934 21.7049 49.0819 21.609 49.1704 21.5205Z" fill="#577CFF"/>
<path d="M42.2024 57.1749C42.1032 57.1342 41.9989 57.1069 41.8925 57.0938H35.0313C34.9281 57.1085 34.8248 57.1306 34.7215 57.1749C34.1018 57.4257 33.755 58.075 34.0501 58.7537C34.3452 59.4398 35.7101 61.3654 38.4619 61.3654C41.2138 61.3654 42.5786 59.4398 42.8737 58.7537C43.1615 58.0676 42.8221 57.4257 42.2024 57.1749Z" fill="#DBA689"/>
<path d="M22.3178 57.85C24.9581 57.85 27.0985 55.6336 27.0985 52.8996C27.0985 50.1656 24.9581 47.9492 22.3178 47.9492C19.6775 47.9492 17.5371 50.1656 17.5371 52.8996C17.5371 55.6336 19.6775 57.85 22.3178 57.85Z" fill="#312D2D"/>
<path d="M54.5717 57.85C57.212 57.85 59.3524 55.6336 59.3524 52.8996C59.3524 50.1656 57.212 47.9492 54.5717 47.9492C51.9314 47.9492 49.791 50.1656 49.791 52.8996C49.791 55.6336 51.9314 57.85 54.5717 57.85Z" fill="#312D2D"/>
<path d="M45.3333 67.4543C42.6774 69.0331 33.9718 69.0331 31.3233 67.4543C29.7961 66.5468 28.2394 67.9338 28.8739 69.3208C29.4936 70.6857 34.2448 73.8433 38.3541 73.8433C42.4561 73.8433 47.1482 70.6857 47.768 69.3208C48.395 67.9338 46.8531 66.5468 45.3333 67.4543Z" fill="#444444"/>
</svg>
