<svg width="184" height="184" viewBox="0 0 184 184" fill="none" xmlns="http://www.w3.org/2000/svg">
<rect width="184" height="184" rx="92" fill="white"/>
<path d="M114 68.5V22H94C80.7452 22 70 32.7452 70 46V88.5C70 101.755 80.7452 112.5 94 112.5H134.5C147.755 112.5 158.5 101.755 158.5 88.5V68.5H114Z" stroke="#002B54" stroke-width="7"/>
<path d="M70.5 115L70.5 161.5L90.5 161.5C103.755 161.5 114.5 150.755 114.5 137.5L114.5 95C114.5 81.7452 103.755 71 90.5 71L50 71C36.7452 71 26 81.7452 26 95L26 115L70.5 115Z" stroke="#2563EB" stroke-width="7"/>
</svg>
